# vtk DataFile Version 3.0
OpenPhys V2 Field Output
ASCII
DATASET STRUCTURED_GRID
DIMENSIONS 50 50 1
POINTS 2500 float
0.000000 0.000000 0.000000
0.020408 0.000000 0.000000
0.040816 0.000000 0.000000
0.061224 0.000000 0.000000
0.081633 0.000000 0.000000
0.102041 0.000000 0.000000
0.122449 0.000000 0.000000
0.142857 0.000000 0.000000
0.163265 0.000000 0.000000
0.183673 0.000000 0.000000
0.204082 0.000000 0.000000
0.224490 0.000000 0.000000
0.244898 0.000000 0.000000
0.265306 0.000000 0.000000
0.285714 0.000000 0.000000
0.306122 0.000000 0.000000
0.326531 0.000000 0.000000
0.346939 0.000000 0.000000
0.367347 0.000000 0.000000
0.387755 0.000000 0.000000
0.408163 0.000000 0.000000
0.428571 0.000000 0.000000
0.448980 0.000000 0.000000
0.469388 0.000000 0.000000
0.489796 0.000000 0.000000
0.510204 0.000000 0.000000
0.530612 0.000000 0.000000
0.551020 0.000000 0.000000
0.571429 0.000000 0.000000
0.591837 0.000000 0.000000
0.612245 0.000000 0.000000
0.632653 0.000000 0.000000
0.653061 0.000000 0.000000
0.673469 0.000000 0.000000
0.693878 0.000000 0.000000
0.714286 0.000000 0.000000
0.734694 0.000000 0.000000
0.755102 0.000000 0.000000
0.775510 0.000000 0.000000
0.795918 0.000000 0.000000
0.816327 0.000000 0.000000
0.836735 0.000000 0.000000
0.857143 0.000000 0.000000
0.877551 0.000000 0.000000
0.897959 0.000000 0.000000
0.918367 0.000000 0.000000
0.938776 0.000000 0.000000
0.959184 0.000000 0.000000
0.979592 0.000000 0.000000
1.000000 0.000000 0.000000
0.000000 0.020408 0.000000
0.020408 0.020408 0.000000
0.040816 0.020408 0.000000
0.061224 0.020408 0.000000
0.081633 0.020408 0.000000
0.102041 0.020408 0.000000
0.122449 0.020408 0.000000
0.142857 0.020408 0.000000
0.163265 0.020408 0.000000
0.183673 0.020408 0.000000
0.204082 0.020408 0.000000
0.224490 0.020408 0.000000
0.244898 0.020408 0.000000
0.265306 0.020408 0.000000
0.285714 0.020408 0.000000
0.306122 0.020408 0.000000
0.326531 0.020408 0.000000
0.346939 0.020408 0.000000
0.367347 0.020408 0.000000
0.387755 0.020408 0.000000
0.408163 0.020408 0.000000
0.428571 0.020408 0.000000
0.448980 0.020408 0.000000
0.469388 0.020408 0.000000
0.489796 0.020408 0.000000
0.510204 0.020408 0.000000
0.530612 0.020408 0.000000
0.551020 0.020408 0.000000
0.571429 0.020408 0.000000
0.591837 0.020408 0.000000
0.612245 0.020408 0.000000
0.632653 0.020408 0.000000
0.653061 0.020408 0.000000
0.673469 0.020408 0.000000
0.693878 0.020408 0.000000
0.714286 0.020408 0.000000
0.734694 0.020408 0.000000
0.755102 0.020408 0.000000
0.775510 0.020408 0.000000
0.795918 0.020408 0.000000
0.816327 0.020408 0.000000
0.836735 0.020408 0.000000
0.857143 0.020408 0.000000
0.877551 0.020408 0.000000
0.897959 0.020408 0.000000
0.918367 0.020408 0.000000
0.938776 0.020408 0.000000
0.959184 0.020408 0.000000
0.979592 0.020408 0.000000
1.000000 0.020408 0.000000
0.000000 0.040816 0.000000
0.020408 0.040816 0.000000
0.040816 0.040816 0.000000
0.061224 0.040816 0.000000
0.081633 0.040816 0.000000
0.102041 0.040816 0.000000
0.122449 0.040816 0.000000
0.142857 0.040816 0.000000
0.163265 0.040816 0.000000
0.183673 0.040816 0.000000
0.204082 0.040816 0.000000
0.224490 0.040816 0.000000
0.244898 0.040816 0.000000
0.265306 0.040816 0.000000
0.285714 0.040816 0.000000
0.306122 0.040816 0.000000
0.326531 0.040816 0.000000
0.346939 0.040816 0.000000
0.367347 0.040816 0.000000
0.387755 0.040816 0.000000
0.408163 0.040816 0.000000
0.428571 0.040816 0.000000
0.448980 0.040816 0.000000
0.469388 0.040816 0.000000
0.489796 0.040816 0.000000
0.510204 0.040816 0.000000
0.530612 0.040816 0.000000
0.551020 0.040816 0.000000
0.571429 0.040816 0.000000
0.591837 0.040816 0.000000
0.612245 0.040816 0.000000
0.632653 0.040816 0.000000
0.653061 0.040816 0.000000
0.673469 0.040816 0.000000
0.693878 0.040816 0.000000
0.714286 0.040816 0.000000
0.734694 0.040816 0.000000
0.755102 0.040816 0.000000
0.775510 0.040816 0.000000
0.795918 0.040816 0.000000
0.816327 0.040816 0.000000
0.836735 0.040816 0.000000
0.857143 0.040816 0.000000
0.877551 0.040816 0.000000
0.897959 0.040816 0.000000
0.918367 0.040816 0.000000
0.938776 0.040816 0.000000
0.959184 0.040816 0.000000
0.979592 0.040816 0.000000
1.000000 0.040816 0.000000
0.000000 0.061224 0.000000
0.020408 0.061224 0.000000
0.040816 0.061224 0.000000
0.061224 0.061224 0.000000
0.081633 0.061224 0.000000
0.102041 0.061224 0.000000
0.122449 0.061224 0.000000
0.142857 0.061224 0.000000
0.163265 0.061224 0.000000
0.183673 0.061224 0.000000
0.204082 0.061224 0.000000
0.224490 0.061224 0.000000
0.244898 0.061224 0.000000
0.265306 0.061224 0.000000
0.285714 0.061224 0.000000
0.306122 0.061224 0.000000
0.326531 0.061224 0.000000
0.346939 0.061224 0.000000
0.367347 0.061224 0.000000
0.387755 0.061224 0.000000
0.408163 0.061224 0.000000
0.428571 0.061224 0.000000
0.448980 0.061224 0.000000
0.469388 0.061224 0.000000
0.489796 0.061224 0.000000
0.510204 0.061224 0.000000
0.530612 0.061224 0.000000
0.551020 0.061224 0.000000
0.571429 0.061224 0.000000
0.591837 0.061224 0.000000
0.612245 0.061224 0.000000
0.632653 0.061224 0.000000
0.653061 0.061224 0.000000
0.673469 0.061224 0.000000
0.693878 0.061224 0.000000
0.714286 0.061224 0.000000
0.734694 0.061224 0.000000
0.755102 0.061224 0.000000
0.775510 0.061224 0.000000
0.795918 0.061224 0.000000
0.816327 0.061224 0.000000
0.836735 0.061224 0.000000
0.857143 0.061224 0.000000
0.877551 0.061224 0.000000
0.897959 0.061224 0.000000
0.918367 0.061224 0.000000
0.938776 0.061224 0.000000
0.959184 0.061224 0.000000
0.979592 0.061224 0.000000
1.000000 0.061224 0.000000
0.000000 0.081633 0.000000
0.020408 0.081633 0.000000
0.040816 0.081633 0.000000
0.061224 0.081633 0.000000
0.081633 0.081633 0.000000
0.102041 0.081633 0.000000
0.122449 0.081633 0.000000
0.142857 0.081633 0.000000
0.163265 0.081633 0.000000
0.183673 0.081633 0.000000
0.204082 0.081633 0.000000
0.224490 0.081633 0.000000
0.244898 0.081633 0.000000
0.265306 0.081633 0.000000
0.285714 0.081633 0.000000
0.306122 0.081633 0.000000
0.326531 0.081633 0.000000
0.346939 0.081633 0.000000
0.367347 0.081633 0.000000
0.387755 0.081633 0.000000
0.408163 0.081633 0.000000
0.428571 0.081633 0.000000
0.448980 0.081633 0.000000
0.469388 0.081633 0.000000
0.489796 0.081633 0.000000
0.510204 0.081633 0.000000
0.530612 0.081633 0.000000
0.551020 0.081633 0.000000
0.571429 0.081633 0.000000
0.591837 0.081633 0.000000
0.612245 0.081633 0.000000
0.632653 0.081633 0.000000
0.653061 0.081633 0.000000
0.673469 0.081633 0.000000
0.693878 0.081633 0.000000
0.714286 0.081633 0.000000
0.734694 0.081633 0.000000
0.755102 0.081633 0.000000
0.775510 0.081633 0.000000
0.795918 0.081633 0.000000
0.816327 0.081633 0.000000
0.836735 0.081633 0.000000
0.857143 0.081633 0.000000
0.877551 0.081633 0.000000
0.897959 0.081633 0.000000
0.918367 0.081633 0.000000
0.938776 0.081633 0.000000
0.959184 0.081633 0.000000
0.979592 0.081633 0.000000
1.000000 0.081633 0.000000
0.000000 0.102041 0.000000
0.020408 0.102041 0.000000
0.040816 0.102041 0.000000
0.061224 0.102041 0.000000
0.081633 0.102041 0.000000
0.102041 0.102041 0.000000
0.122449 0.102041 0.000000
0.142857 0.102041 0.000000
0.163265 0.102041 0.000000
0.183673 0.102041 0.000000
0.204082 0.102041 0.000000
0.224490 0.102041 0.000000
0.244898 0.102041 0.000000
0.265306 0.102041 0.000000
0.285714 0.102041 0.000000
0.306122 0.102041 0.000000
0.326531 0.102041 0.000000
0.346939 0.102041 0.000000
0.367347 0.102041 0.000000
0.387755 0.102041 0.000000
0.408163 0.102041 0.000000
0.428571 0.102041 0.000000
0.448980 0.102041 0.000000
0.469388 0.102041 0.000000
0.489796 0.102041 0.000000
0.510204 0.102041 0.000000
0.530612 0.102041 0.000000
0.551020 0.102041 0.000000
0.571429 0.102041 0.000000
0.591837 0.102041 0.000000
0.612245 0.102041 0.000000
0.632653 0.102041 0.000000
0.653061 0.102041 0.000000
0.673469 0.102041 0.000000
0.693878 0.102041 0.000000
0.714286 0.102041 0.000000
0.734694 0.102041 0.000000
0.755102 0.102041 0.000000
0.775510 0.102041 0.000000
0.795918 0.102041 0.000000
0.816327 0.102041 0.000000
0.836735 0.102041 0.000000
0.857143 0.102041 0.000000
0.877551 0.102041 0.000000
0.897959 0.102041 0.000000
0.918367 0.102041 0.000000
0.938776 0.102041 0.000000
0.959184 0.102041 0.000000
0.979592 0.102041 0.000000
1.000000 0.102041 0.000000
0.000000 0.122449 0.000000
0.020408 0.122449 0.000000
0.040816 0.122449 0.000000
0.061224 0.122449 0.000000
0.081633 0.122449 0.000000
0.102041 0.122449 0.000000
0.122449 0.122449 0.000000
0.142857 0.122449 0.000000
0.163265 0.122449 0.000000
0.183673 0.122449 0.000000
0.204082 0.122449 0.000000
0.224490 0.122449 0.000000
0.244898 0.122449 0.000000
0.265306 0.122449 0.000000
0.285714 0.122449 0.000000
0.306122 0.122449 0.000000
0.326531 0.122449 0.000000
0.346939 0.122449 0.000000
0.367347 0.122449 0.000000
0.387755 0.122449 0.000000
0.408163 0.122449 0.000000
0.428571 0.122449 0.000000
0.448980 0.122449 0.000000
0.469388 0.122449 0.000000
0.489796 0.122449 0.000000
0.510204 0.122449 0.000000
0.530612 0.122449 0.000000
0.551020 0.122449 0.000000
0.571429 0.122449 0.000000
0.591837 0.122449 0.000000
0.612245 0.122449 0.000000
0.632653 0.122449 0.000000
0.653061 0.122449 0.000000
0.673469 0.122449 0.000000
0.693878 0.122449 0.000000
0.714286 0.122449 0.000000
0.734694 0.122449 0.000000
0.755102 0.122449 0.000000
0.775510 0.122449 0.000000
0.795918 0.122449 0.000000
0.816327 0.122449 0.000000
0.836735 0.122449 0.000000
0.857143 0.122449 0.000000
0.877551 0.122449 0.000000
0.897959 0.122449 0.000000
0.918367 0.122449 0.000000
0.938776 0.122449 0.000000
0.959184 0.122449 0.000000
0.979592 0.122449 0.000000
1.000000 0.122449 0.000000
0.000000 0.142857 0.000000
0.020408 0.142857 0.000000
0.040816 0.142857 0.000000
0.061224 0.142857 0.000000
0.081633 0.142857 0.000000
0.102041 0.142857 0.000000
0.122449 0.142857 0.000000
0.142857 0.142857 0.000000
0.163265 0.142857 0.000000
0.183673 0.142857 0.000000
0.204082 0.142857 0.000000
0.224490 0.142857 0.000000
0.244898 0.142857 0.000000
0.265306 0.142857 0.000000
0.285714 0.142857 0.000000
0.306122 0.142857 0.000000
0.326531 0.142857 0.000000
0.346939 0.142857 0.000000
0.367347 0.142857 0.000000
0.387755 0.142857 0.000000
0.408163 0.142857 0.000000
0.428571 0.142857 0.000000
0.448980 0.142857 0.000000
0.469388 0.142857 0.000000
0.489796 0.142857 0.000000
0.510204 0.142857 0.000000
0.530612 0.142857 0.000000
0.551020 0.142857 0.000000
0.571429 0.142857 0.000000
0.591837 0.142857 0.000000
0.612245 0.142857 0.000000
0.632653 0.142857 0.000000
0.653061 0.142857 0.000000
0.673469 0.142857 0.000000
0.693878 0.142857 0.000000
0.714286 0.142857 0.000000
0.734694 0.142857 0.000000
0.755102 0.142857 0.000000
0.775510 0.142857 0.000000
0.795918 0.142857 0.000000
0.816327 0.142857 0.000000
0.836735 0.142857 0.000000
0.857143 0.142857 0.000000
0.877551 0.142857 0.000000
0.897959 0.142857 0.000000
0.918367 0.142857 0.000000
0.938776 0.142857 0.000000
0.959184 0.142857 0.000000
0.979592 0.142857 0.000000
1.000000 0.142857 0.000000
0.000000 0.163265 0.000000
0.020408 0.163265 0.000000
0.040816 0.163265 0.000000
0.061224 0.163265 0.000000
0.081633 0.163265 0.000000
0.102041 0.163265 0.000000
0.122449 0.163265 0.000000
0.142857 0.163265 0.000000
0.163265 0.163265 0.000000
0.183673 0.163265 0.000000
0.204082 0.163265 0.000000
0.224490 0.163265 0.000000
0.244898 0.163265 0.000000
0.265306 0.163265 0.000000
0.285714 0.163265 0.000000
0.306122 0.163265 0.000000
0.326531 0.163265 0.000000
0.346939 0.163265 0.000000
0.367347 0.163265 0.000000
0.387755 0.163265 0.000000
0.408163 0.163265 0.000000
0.428571 0.163265 0.000000
0.448980 0.163265 0.000000
0.469388 0.163265 0.000000
0.489796 0.163265 0.000000
0.510204 0.163265 0.000000
0.530612 0.163265 0.000000
0.551020 0.163265 0.000000
0.571429 0.163265 0.000000
0.591837 0.163265 0.000000
0.612245 0.163265 0.000000
0.632653 0.163265 0.000000
0.653061 0.163265 0.000000
0.673469 0.163265 0.000000
0.693878 0.163265 0.000000
0.714286 0.163265 0.000000
0.734694 0.163265 0.000000
0.755102 0.163265 0.000000
0.775510 0.163265 0.000000
0.795918 0.163265 0.000000
0.816327 0.163265 0.000000
0.836735 0.163265 0.000000
0.857143 0.163265 0.000000
0.877551 0.163265 0.000000
0.897959 0.163265 0.000000
0.918367 0.163265 0.000000
0.938776 0.163265 0.000000
0.959184 0.163265 0.000000
0.979592 0.163265 0.000000
1.000000 0.163265 0.000000
0.000000 0.183673 0.000000
0.020408 0.183673 0.000000
0.040816 0.183673 0.000000
0.061224 0.183673 0.000000
0.081633 0.183673 0.000000
0.102041 0.183673 0.000000
0.122449 0.183673 0.000000
0.142857 0.183673 0.000000
0.163265 0.183673 0.000000
0.183673 0.183673 0.000000
0.204082 0.183673 0.000000
0.224490 0.183673 0.000000
0.244898 0.183673 0.000000
0.265306 0.183673 0.000000
0.285714 0.183673 0.000000
0.306122 0.183673 0.000000
0.326531 0.183673 0.000000
0.346939 0.183673 0.000000
0.367347 0.183673 0.000000
0.387755 0.183673 0.000000
0.408163 0.183673 0.000000
0.428571 0.183673 0.000000
0.448980 0.183673 0.000000
0.469388 0.183673 0.000000
0.489796 0.183673 0.000000
0.510204 0.183673 0.000000
0.530612 0.183673 0.000000
0.551020 0.183673 0.000000
0.571429 0.183673 0.000000
0.591837 0.183673 0.000000
0.612245 0.183673 0.000000
0.632653 0.183673 0.000000
0.653061 0.183673 0.000000
0.673469 0.183673 0.000000
0.693878 0.183673 0.000000
0.714286 0.183673 0.000000
0.734694 0.183673 0.000000
0.755102 0.183673 0.000000
0.775510 0.183673 0.000000
0.795918 0.183673 0.000000
0.816327 0.183673 0.000000
0.836735 0.183673 0.000000
0.857143 0.183673 0.000000
0.877551 0.183673 0.000000
0.897959 0.183673 0.000000
0.918367 0.183673 0.000000
0.938776 0.183673 0.000000
0.959184 0.183673 0.000000
0.979592 0.183673 0.000000
1.000000 0.183673 0.000000
0.000000 0.204082 0.000000
0.020408 0.204082 0.000000
0.040816 0.204082 0.000000
0.061224 0.204082 0.000000
0.081633 0.204082 0.000000
0.102041 0.204082 0.000000
0.122449 0.204082 0.000000
0.142857 0.204082 0.000000
0.163265 0.204082 0.000000
0.183673 0.204082 0.000000
0.204082 0.204082 0.000000
0.224490 0.204082 0.000000
0.244898 0.204082 0.000000
0.265306 0.204082 0.000000
0.285714 0.204082 0.000000
0.306122 0.204082 0.000000
0.326531 0.204082 0.000000
0.346939 0.204082 0.000000
0.367347 0.204082 0.000000
0.387755 0.204082 0.000000
0.408163 0.204082 0.000000
0.428571 0.204082 0.000000
0.448980 0.204082 0.000000
0.469388 0.204082 0.000000
0.489796 0.204082 0.000000
0.510204 0.204082 0.000000
0.530612 0.204082 0.000000
0.551020 0.204082 0.000000
0.571429 0.204082 0.000000
0.591837 0.204082 0.000000
0.612245 0.204082 0.000000
0.632653 0.204082 0.000000
0.653061 0.204082 0.000000
0.673469 0.204082 0.000000
0.693878 0.204082 0.000000
0.714286 0.204082 0.000000
0.734694 0.204082 0.000000
0.755102 0.204082 0.000000
0.775510 0.204082 0.000000
0.795918 0.204082 0.000000
0.816327 0.204082 0.000000
0.836735 0.204082 0.000000
0.857143 0.204082 0.000000
0.877551 0.204082 0.000000
0.897959 0.204082 0.000000
0.918367 0.204082 0.000000
0.938776 0.204082 0.000000
0.959184 0.204082 0.000000
0.979592 0.204082 0.000000
1.000000 0.204082 0.000000
0.000000 0.224490 0.000000
0.020408 0.224490 0.000000
0.040816 0.224490 0.000000
0.061224 0.224490 0.000000
0.081633 0.224490 0.000000
0.102041 0.224490 0.000000
0.122449 0.224490 0.000000
0.142857 0.224490 0.000000
0.163265 0.224490 0.000000
0.183673 0.224490 0.000000
0.204082 0.224490 0.000000
0.224490 0.224490 0.000000
0.244898 0.224490 0.000000
0.265306 0.224490 0.000000
0.285714 0.224490 0.000000
0.306122 0.224490 0.000000
0.326531 0.224490 0.000000
0.346939 0.224490 0.000000
0.367347 0.224490 0.000000
0.387755 0.224490 0.000000
0.408163 0.224490 0.000000
0.428571 0.224490 0.000000
0.448980 0.224490 0.000000
0.469388 0.224490 0.000000
0.489796 0.224490 0.000000
0.510204 0.224490 0.000000
0.530612 0.224490 0.000000
0.551020 0.224490 0.000000
0.571429 0.224490 0.000000
0.591837 0.224490 0.000000
0.612245 0.224490 0.000000
0.632653 0.224490 0.000000
0.653061 0.224490 0.000000
0.673469 0.224490 0.000000
0.693878 0.224490 0.000000
0.714286 0.224490 0.000000
0.734694 0.224490 0.000000
0.755102 0.224490 0.000000
0.775510 0.224490 0.000000
0.795918 0.224490 0.000000
0.816327 0.224490 0.000000
0.836735 0.224490 0.000000
0.857143 0.224490 0.000000
0.877551 0.224490 0.000000
0.897959 0.224490 0.000000
0.918367 0.224490 0.000000
0.938776 0.224490 0.000000
0.959184 0.224490 0.000000
0.979592 0.224490 0.000000
1.000000 0.224490 0.000000
0.000000 0.244898 0.000000
0.020408 0.244898 0.000000
0.040816 0.244898 0.000000
0.061224 0.244898 0.000000
0.081633 0.244898 0.000000
0.102041 0.244898 0.000000
0.122449 0.244898 0.000000
0.142857 0.244898 0.000000
0.163265 0.244898 0.000000
0.183673 0.244898 0.000000
0.204082 0.244898 0.000000
0.224490 0.244898 0.000000
0.244898 0.244898 0.000000
0.265306 0.244898 0.000000
0.285714 0.244898 0.000000
0.306122 0.244898 0.000000
0.326531 0.244898 0.000000
0.346939 0.244898 0.000000
0.367347 0.244898 0.000000
0.387755 0.244898 0.000000
0.408163 0.244898 0.000000
0.428571 0.244898 0.000000
0.448980 0.244898 0.000000
0.469388 0.244898 0.000000
0.489796 0.244898 0.000000
0.510204 0.244898 0.000000
0.530612 0.244898 0.000000
0.551020 0.244898 0.000000
0.571429 0.244898 0.000000
0.591837 0.244898 0.000000
0.612245 0.244898 0.000000
0.632653 0.244898 0.000000
0.653061 0.244898 0.000000
0.673469 0.244898 0.000000
0.693878 0.244898 0.000000
0.714286 0.244898 0.000000
0.734694 0.244898 0.000000
0.755102 0.244898 0.000000
0.775510 0.244898 0.000000
0.795918 0.244898 0.000000
0.816327 0.244898 0.000000
0.836735 0.244898 0.000000
0.857143 0.244898 0.000000
0.877551 0.244898 0.000000
0.897959 0.244898 0.000000
0.918367 0.244898 0.000000
0.938776 0.244898 0.000000
0.959184 0.244898 0.000000
0.979592 0.244898 0.000000
1.000000 0.244898 0.000000
0.000000 0.265306 0.000000
0.020408 0.265306 0.000000
0.040816 0.265306 0.000000
0.061224 0.265306 0.000000
0.081633 0.265306 0.000000
0.102041 0.265306 0.000000
0.122449 0.265306 0.000000
0.142857 0.265306 0.000000
0.163265 0.265306 0.000000
0.183673 0.265306 0.000000
0.204082 0.265306 0.000000
0.224490 0.265306 0.000000
0.244898 0.265306 0.000000
0.265306 0.265306 0.000000
0.285714 0.265306 0.000000
0.306122 0.265306 0.000000
0.326531 0.265306 0.000000
0.346939 0.265306 0.000000
0.367347 0.265306 0.000000
0.387755 0.265306 0.000000
0.408163 0.265306 0.000000
0.428571 0.265306 0.000000
0.448980 0.265306 0.000000
0.469388 0.265306 0.000000
0.489796 0.265306 0.000000
0.510204 0.265306 0.000000
0.530612 0.265306 0.000000
0.551020 0.265306 0.000000
0.571429 0.265306 0.000000
0.591837 0.265306 0.000000
0.612245 0.265306 0.000000
0.632653 0.265306 0.000000
0.653061 0.265306 0.000000
0.673469 0.265306 0.000000
0.693878 0.265306 0.000000
0.714286 0.265306 0.000000
0.734694 0.265306 0.000000
0.755102 0.265306 0.000000
0.775510 0.265306 0.000000
0.795918 0.265306 0.000000
0.816327 0.265306 0.000000
0.836735 0.265306 0.000000
0.857143 0.265306 0.000000
0.877551 0.265306 0.000000
0.897959 0.265306 0.000000
0.918367 0.265306 0.000000
0.938776 0.265306 0.000000
0.959184 0.265306 0.000000
0.979592 0.265306 0.000000
1.000000 0.265306 0.000000
0.000000 0.285714 0.000000
0.020408 0.285714 0.000000
0.040816 0.285714 0.000000
0.061224 0.285714 0.000000
0.081633 0.285714 0.000000
0.102041 0.285714 0.000000
0.122449 0.285714 0.000000
0.142857 0.285714 0.000000
0.163265 0.285714 0.000000
0.183673 0.285714 0.000000
0.204082 0.285714 0.000000
0.224490 0.285714 0.000000
0.244898 0.285714 0.000000
0.265306 0.285714 0.000000
0.285714 0.285714 0.000000
0.306122 0.285714 0.000000
0.326531 0.285714 0.000000
0.346939 0.285714 0.000000
0.367347 0.285714 0.000000
0.387755 0.285714 0.000000
0.408163 0.285714 0.000000
0.428571 0.285714 0.000000
0.448980 0.285714 0.000000
0.469388 0.285714 0.000000
0.489796 0.285714 0.000000
0.510204 0.285714 0.000000
0.530612 0.285714 0.000000
0.551020 0.285714 0.000000
0.571429 0.285714 0.000000
0.591837 0.285714 0.000000
0.612245 0.285714 0.000000
0.632653 0.285714 0.000000
0.653061 0.285714 0.000000
0.673469 0.285714 0.000000
0.693878 0.285714 0.000000
0.714286 0.285714 0.000000
0.734694 0.285714 0.000000
0.755102 0.285714 0.000000
0.775510 0.285714 0.000000
0.795918 0.285714 0.000000
0.816327 0.285714 0.000000
0.836735 0.285714 0.000000
0.857143 0.285714 0.000000
0.877551 0.285714 0.000000
0.897959 0.285714 0.000000
0.918367 0.285714 0.000000
0.938776 0.285714 0.000000
0.959184 0.285714 0.000000
0.979592 0.285714 0.000000
1.000000 0.285714 0.000000
0.000000 0.306122 0.000000
0.020408 0.306122 0.000000
0.040816 0.306122 0.000000
0.061224 0.306122 0.000000
0.081633 0.306122 0.000000
0.102041 0.306122 0.000000
0.122449 0.306122 0.000000
0.142857 0.306122 0.000000
0.163265 0.306122 0.000000
0.183673 0.306122 0.000000
0.204082 0.306122 0.000000
0.224490 0.306122 0.000000
0.244898 0.306122 0.000000
0.265306 0.306122 0.000000
0.285714 0.306122 0.000000
0.306122 0.306122 0.000000
0.326531 0.306122 0.000000
0.346939 0.306122 0.000000
0.367347 0.306122 0.000000
0.387755 0.306122 0.000000
0.408163 0.306122 0.000000
0.428571 0.306122 0.000000
0.448980 0.306122 0.000000
0.469388 0.306122 0.000000
0.489796 0.306122 0.000000
0.510204 0.306122 0.000000
0.530612 0.306122 0.000000
0.551020 0.306122 0.000000
0.571429 0.306122 0.000000
0.591837 0.306122 0.000000
0.612245 0.306122 0.000000
0.632653 0.306122 0.000000
0.653061 0.306122 0.000000
0.673469 0.306122 0.000000
0.693878 0.306122 0.000000
0.714286 0.306122 0.000000
0.734694 0.306122 0.000000
0.755102 0.306122 0.000000
0.775510 0.306122 0.000000
0.795918 0.306122 0.000000
0.816327 0.306122 0.000000
0.836735 0.306122 0.000000
0.857143 0.306122 0.000000
0.877551 0.306122 0.000000
0.897959 0.306122 0.000000
0.918367 0.306122 0.000000
0.938776 0.306122 0.000000
0.959184 0.306122 0.000000
0.979592 0.306122 0.000000
1.000000 0.306122 0.000000
0.000000 0.326531 0.000000
0.020408 0.326531 0.000000
0.040816 0.326531 0.000000
0.061224 0.326531 0.000000
0.081633 0.326531 0.000000
0.102041 0.326531 0.000000
0.122449 0.326531 0.000000
0.142857 0.326531 0.000000
0.163265 0.326531 0.000000
0.183673 0.326531 0.000000
0.204082 0.326531 0.000000
0.224490 0.326531 0.000000
0.244898 0.326531 0.000000
0.265306 0.326531 0.000000
0.285714 0.326531 0.000000
0.306122 0.326531 0.000000
0.326531 0.326531 0.000000
0.346939 0.326531 0.000000
0.367347 0.326531 0.000000
0.387755 0.326531 0.000000
0.408163 0.326531 0.000000
0.428571 0.326531 0.000000
0.448980 0.326531 0.000000
0.469388 0.326531 0.000000
0.489796 0.326531 0.000000
0.510204 0.326531 0.000000
0.530612 0.326531 0.000000
0.551020 0.326531 0.000000
0.571429 0.326531 0.000000
0.591837 0.326531 0.000000
0.612245 0.326531 0.000000
0.632653 0.326531 0.000000
0.653061 0.326531 0.000000
0.673469 0.326531 0.000000
0.693878 0.326531 0.000000
0.714286 0.326531 0.000000
0.734694 0.326531 0.000000
0.755102 0.326531 0.000000
0.775510 0.326531 0.000000
0.795918 0.326531 0.000000
0.816327 0.326531 0.000000
0.836735 0.326531 0.000000
0.857143 0.326531 0.000000
0.877551 0.326531 0.000000
0.897959 0.326531 0.000000
0.918367 0.326531 0.000000
0.938776 0.326531 0.000000
0.959184 0.326531 0.000000
0.979592 0.326531 0.000000
1.000000 0.326531 0.000000
0.000000 0.346939 0.000000
0.020408 0.346939 0.000000
0.040816 0.346939 0.000000
0.061224 0.346939 0.000000
0.081633 0.346939 0.000000
0.102041 0.346939 0.000000
0.122449 0.346939 0.000000
0.142857 0.346939 0.000000
0.163265 0.346939 0.000000
0.183673 0.346939 0.000000
0.204082 0.346939 0.000000
0.224490 0.346939 0.000000
0.244898 0.346939 0.000000
0.265306 0.346939 0.000000
0.285714 0.346939 0.000000
0.306122 0.346939 0.000000
0.326531 0.346939 0.000000
0.346939 0.346939 0.000000
0.367347 0.346939 0.000000
0.387755 0.346939 0.000000
0.408163 0.346939 0.000000
0.428571 0.346939 0.000000
0.448980 0.346939 0.000000
0.469388 0.346939 0.000000
0.489796 0.346939 0.000000
0.510204 0.346939 0.000000
0.530612 0.346939 0.000000
0.551020 0.346939 0.000000
0.571429 0.346939 0.000000
0.591837 0.346939 0.000000
0.612245 0.346939 0.000000
0.632653 0.346939 0.000000
0.653061 0.346939 0.000000
0.673469 0.346939 0.000000
0.693878 0.346939 0.000000
0.714286 0.346939 0.000000
0.734694 0.346939 0.000000
0.755102 0.346939 0.000000
0.775510 0.346939 0.000000
0.795918 0.346939 0.000000
0.816327 0.346939 0.000000
0.836735 0.346939 0.000000
0.857143 0.346939 0.000000
0.877551 0.346939 0.000000
0.897959 0.346939 0.000000
0.918367 0.346939 0.000000
0.938776 0.346939 0.000000
0.959184 0.346939 0.000000
0.979592 0.346939 0.000000
1.000000 0.346939 0.000000
0.000000 0.367347 0.000000
0.020408 0.367347 0.000000
0.040816 0.367347 0.000000
0.061224 0.367347 0.000000
0.081633 0.367347 0.000000
0.102041 0.367347 0.000000
0.122449 0.367347 0.000000
0.142857 0.367347 0.000000
0.163265 0.367347 0.000000
0.183673 0.367347 0.000000
0.204082 0.367347 0.000000
0.224490 0.367347 0.000000
0.244898 0.367347 0.000000
0.265306 0.367347 0.000000
0.285714 0.367347 0.000000
0.306122 0.367347 0.000000
0.326531 0.367347 0.000000
0.346939 0.367347 0.000000
0.367347 0.367347 0.000000
0.387755 0.367347 0.000000
0.408163 0.367347 0.000000
0.428571 0.367347 0.000000
0.448980 0.367347 0.000000
0.469388 0.367347 0.000000
0.489796 0.367347 0.000000
0.510204 0.367347 0.000000
0.530612 0.367347 0.000000
0.551020 0.367347 0.000000
0.571429 0.367347 0.000000
0.591837 0.367347 0.000000
0.612245 0.367347 0.000000
0.632653 0.367347 0.000000
0.653061 0.367347 0.000000
0.673469 0.367347 0.000000
0.693878 0.367347 0.000000
0.714286 0.367347 0.000000
0.734694 0.367347 0.000000
0.755102 0.367347 0.000000
0.775510 0.367347 0.000000
0.795918 0.367347 0.000000
0.816327 0.367347 0.000000
0.836735 0.367347 0.000000
0.857143 0.367347 0.000000
0.877551 0.367347 0.000000
0.897959 0.367347 0.000000
0.918367 0.367347 0.000000
0.938776 0.367347 0.000000
0.959184 0.367347 0.000000
0.979592 0.367347 0.000000
1.000000 0.367347 0.000000
0.000000 0.387755 0.000000
0.020408 0.387755 0.000000
0.040816 0.387755 0.000000
0.061224 0.387755 0.000000
0.081633 0.387755 0.000000
0.102041 0.387755 0.000000
0.122449 0.387755 0.000000
0.142857 0.387755 0.000000
0.163265 0.387755 0.000000
0.183673 0.387755 0.000000
0.204082 0.387755 0.000000
0.224490 0.387755 0.000000
0.244898 0.387755 0.000000
0.265306 0.387755 0.000000
0.285714 0.387755 0.000000
0.306122 0.387755 0.000000
0.326531 0.387755 0.000000
0.346939 0.387755 0.000000
0.367347 0.387755 0.000000
0.387755 0.387755 0.000000
0.408163 0.387755 0.000000
0.428571 0.387755 0.000000
0.448980 0.387755 0.000000
0.469388 0.387755 0.000000
0.489796 0.387755 0.000000
0.510204 0.387755 0.000000
0.530612 0.387755 0.000000
0.551020 0.387755 0.000000
0.571429 0.387755 0.000000
0.591837 0.387755 0.000000
0.612245 0.387755 0.000000
0.632653 0.387755 0.000000
0.653061 0.387755 0.000000
0.673469 0.387755 0.000000
0.693878 0.387755 0.000000
0.714286 0.387755 0.000000
0.734694 0.387755 0.000000
0.755102 0.387755 0.000000
0.775510 0.387755 0.000000
0.795918 0.387755 0.000000
0.816327 0.387755 0.000000
0.836735 0.387755 0.000000
0.857143 0.387755 0.000000
0.877551 0.387755 0.000000
0.897959 0.387755 0.000000
0.918367 0.387755 0.000000
0.938776 0.387755 0.000000
0.959184 0.387755 0.000000
0.979592 0.387755 0.000000
1.000000 0.387755 0.000000
0.000000 0.408163 0.000000
0.020408 0.408163 0.000000
0.040816 0.408163 0.000000
0.061224 0.408163 0.000000
0.081633 0.408163 0.000000
0.102041 0.408163 0.000000
0.122449 0.408163 0.000000
0.142857 0.408163 0.000000
0.163265 0.408163 0.000000
0.183673 0.408163 0.000000
0.204082 0.408163 0.000000
0.224490 0.408163 0.000000
0.244898 0.408163 0.000000
0.265306 0.408163 0.000000
0.285714 0.408163 0.000000
0.306122 0.408163 0.000000
0.326531 0.408163 0.000000
0.346939 0.408163 0.000000
0.367347 0.408163 0.000000
0.387755 0.408163 0.000000
0.408163 0.408163 0.000000
0.428571 0.408163 0.000000
0.448980 0.408163 0.000000
0.469388 0.408163 0.000000
0.489796 0.408163 0.000000
0.510204 0.408163 0.000000
0.530612 0.408163 0.000000
0.551020 0.408163 0.000000
0.571429 0.408163 0.000000
0.591837 0.408163 0.000000
0.612245 0.408163 0.000000
0.632653 0.408163 0.000000
0.653061 0.408163 0.000000
0.673469 0.408163 0.000000
0.693878 0.408163 0.000000
0.714286 0.408163 0.000000
0.734694 0.408163 0.000000
0.755102 0.408163 0.000000
0.775510 0.408163 0.000000
0.795918 0.408163 0.000000
0.816327 0.408163 0.000000
0.836735 0.408163 0.000000
0.857143 0.408163 0.000000
0.877551 0.408163 0.000000
0.897959 0.408163 0.000000
0.918367 0.408163 0.000000
0.938776 0.408163 0.000000
0.959184 0.408163 0.000000
0.979592 0.408163 0.000000
1.000000 0.408163 0.000000
0.000000 0.428571 0.000000
0.020408 0.428571 0.000000
0.040816 0.428571 0.000000
0.061224 0.428571 0.000000
0.081633 0.428571 0.000000
0.102041 0.428571 0.000000
0.122449 0.428571 0.000000
0.142857 0.428571 0.000000
0.163265 0.428571 0.000000
0.183673 0.428571 0.000000
0.204082 0.428571 0.000000
0.224490 0.428571 0.000000
0.244898 0.428571 0.000000
0.265306 0.428571 0.000000
0.285714 0.428571 0.000000
0.306122 0.428571 0.000000
0.326531 0.428571 0.000000
0.346939 0.428571 0.000000
0.367347 0.428571 0.000000
0.387755 0.428571 0.000000
0.408163 0.428571 0.000000
0.428571 0.428571 0.000000
0.448980 0.428571 0.000000
0.469388 0.428571 0.000000
0.489796 0.428571 0.000000
0.510204 0.428571 0.000000
0.530612 0.428571 0.000000
0.551020 0.428571 0.000000
0.571429 0.428571 0.000000
0.591837 0.428571 0.000000
0.612245 0.428571 0.000000
0.632653 0.428571 0.000000
0.653061 0.428571 0.000000
0.673469 0.428571 0.000000
0.693878 0.428571 0.000000
0.714286 0.428571 0.000000
0.734694 0.428571 0.000000
0.755102 0.428571 0.000000
0.775510 0.428571 0.000000
0.795918 0.428571 0.000000
0.816327 0.428571 0.000000
0.836735 0.428571 0.000000
0.857143 0.428571 0.000000
0.877551 0.428571 0.000000
0.897959 0.428571 0.000000
0.918367 0.428571 0.000000
0.938776 0.428571 0.000000
0.959184 0.428571 0.000000
0.979592 0.428571 0.000000
1.000000 0.428571 0.000000
0.000000 0.448980 0.000000
0.020408 0.448980 0.000000
0.040816 0.448980 0.000000
0.061224 0.448980 0.000000
0.081633 0.448980 0.000000
0.102041 0.448980 0.000000
0.122449 0.448980 0.000000
0.142857 0.448980 0.000000
0.163265 0.448980 0.000000
0.183673 0.448980 0.000000
0.204082 0.448980 0.000000
0.224490 0.448980 0.000000
0.244898 0.448980 0.000000
0.265306 0.448980 0.000000
0.285714 0.448980 0.000000
0.306122 0.448980 0.000000
0.326531 0.448980 0.000000
0.346939 0.448980 0.000000
0.367347 0.448980 0.000000
0.387755 0.448980 0.000000
0.408163 0.448980 0.000000
0.428571 0.448980 0.000000
0.448980 0.448980 0.000000
0.469388 0.448980 0.000000
0.489796 0.448980 0.000000
0.510204 0.448980 0.000000
0.530612 0.448980 0.000000
0.551020 0.448980 0.000000
0.571429 0.448980 0.000000
0.591837 0.448980 0.000000
0.612245 0.448980 0.000000
0.632653 0.448980 0.000000
0.653061 0.448980 0.000000
0.673469 0.448980 0.000000
0.693878 0.448980 0.000000
0.714286 0.448980 0.000000
0.734694 0.448980 0.000000
0.755102 0.448980 0.000000
0.775510 0.448980 0.000000
0.795918 0.448980 0.000000
0.816327 0.448980 0.000000
0.836735 0.448980 0.000000
0.857143 0.448980 0.000000
0.877551 0.448980 0.000000
0.897959 0.448980 0.000000
0.918367 0.448980 0.000000
0.938776 0.448980 0.000000
0.959184 0.448980 0.000000
0.979592 0.448980 0.000000
1.000000 0.448980 0.000000
0.000000 0.469388 0.000000
0.020408 0.469388 0.000000
0.040816 0.469388 0.000000
0.061224 0.469388 0.000000
0.081633 0.469388 0.000000
0.102041 0.469388 0.000000
0.122449 0.469388 0.000000
0.142857 0.469388 0.000000
0.163265 0.469388 0.000000
0.183673 0.469388 0.000000
0.204082 0.469388 0.000000
0.224490 0.469388 0.000000
0.244898 0.469388 0.000000
0.265306 0.469388 0.000000
0.285714 0.469388 0.000000
0.306122 0.469388 0.000000
0.326531 0.469388 0.000000
0.346939 0.469388 0.000000
0.367347 0.469388 0.000000
0.387755 0.469388 0.000000
0.408163 0.469388 0.000000
0.428571 0.469388 0.000000
0.448980 0.469388 0.000000
0.469388 0.469388 0.000000
0.489796 0.469388 0.000000
0.510204 0.469388 0.000000
0.530612 0.469388 0.000000
0.551020 0.469388 0.000000
0.571429 0.469388 0.000000
0.591837 0.469388 0.000000
0.612245 0.469388 0.000000
0.632653 0.469388 0.000000
0.653061 0.469388 0.000000
0.673469 0.469388 0.000000
0.693878 0.469388 0.000000
0.714286 0.469388 0.000000
0.734694 0.469388 0.000000
0.755102 0.469388 0.000000
0.775510 0.469388 0.000000
0.795918 0.469388 0.000000
0.816327 0.469388 0.000000
0.836735 0.469388 0.000000
0.857143 0.469388 0.000000
0.877551 0.469388 0.000000
0.897959 0.469388 0.000000
0.918367 0.469388 0.000000
0.938776 0.469388 0.000000
0.959184 0.469388 0.000000
0.979592 0.469388 0.000000
1.000000 0.469388 0.000000
0.000000 0.489796 0.000000
0.020408 0.489796 0.000000
0.040816 0.489796 0.000000
0.061224 0.489796 0.000000
0.081633 0.489796 0.000000
0.102041 0.489796 0.000000
0.122449 0.489796 0.000000
0.142857 0.489796 0.000000
0.163265 0.489796 0.000000
0.183673 0.489796 0.000000
0.204082 0.489796 0.000000
0.224490 0.489796 0.000000
0.244898 0.489796 0.000000
0.265306 0.489796 0.000000
0.285714 0.489796 0.000000
0.306122 0.489796 0.000000
0.326531 0.489796 0.000000
0.346939 0.489796 0.000000
0.367347 0.489796 0.000000
0.387755 0.489796 0.000000
0.408163 0.489796 0.000000
0.428571 0.489796 0.000000
0.448980 0.489796 0.000000
0.469388 0.489796 0.000000
0.489796 0.489796 0.000000
0.510204 0.489796 0.000000
0.530612 0.489796 0.000000
0.551020 0.489796 0.000000
0.571429 0.489796 0.000000
0.591837 0.489796 0.000000
0.612245 0.489796 0.000000
0.632653 0.489796 0.000000
0.653061 0.489796 0.000000
0.673469 0.489796 0.000000
0.693878 0.489796 0.000000
0.714286 0.489796 0.000000
0.734694 0.489796 0.000000
0.755102 0.489796 0.000000
0.775510 0.489796 0.000000
0.795918 0.489796 0.000000
0.816327 0.489796 0.000000
0.836735 0.489796 0.000000
0.857143 0.489796 0.000000
0.877551 0.489796 0.000000
0.897959 0.489796 0.000000
0.918367 0.489796 0.000000
0.938776 0.489796 0.000000
0.959184 0.489796 0.000000
0.979592 0.489796 0.000000
1.000000 0.489796 0.000000
0.000000 0.510204 0.000000
0.020408 0.510204 0.000000
0.040816 0.510204 0.000000
0.061224 0.510204 0.000000
0.081633 0.510204 0.000000
0.102041 0.510204 0.000000
0.122449 0.510204 0.000000
0.142857 0.510204 0.000000
0.163265 0.510204 0.000000
0.183673 0.510204 0.000000
0.204082 0.510204 0.000000
0.224490 0.510204 0.000000
0.244898 0.510204 0.000000
0.265306 0.510204 0.000000
0.285714 0.510204 0.000000
0.306122 0.510204 0.000000
0.326531 0.510204 0.000000
0.346939 0.510204 0.000000
0.367347 0.510204 0.000000
0.387755 0.510204 0.000000
0.408163 0.510204 0.000000
0.428571 0.510204 0.000000
0.448980 0.510204 0.000000
0.469388 0.510204 0.000000
0.489796 0.510204 0.000000
0.510204 0.510204 0.000000
0.530612 0.510204 0.000000
0.551020 0.510204 0.000000
0.571429 0.510204 0.000000
0.591837 0.510204 0.000000
0.612245 0.510204 0.000000
0.632653 0.510204 0.000000
0.653061 0.510204 0.000000
0.673469 0.510204 0.000000
0.693878 0.510204 0.000000
0.714286 0.510204 0.000000
0.734694 0.510204 0.000000
0.755102 0.510204 0.000000
0.775510 0.510204 0.000000
0.795918 0.510204 0.000000
0.816327 0.510204 0.000000
0.836735 0.510204 0.000000
0.857143 0.510204 0.000000
0.877551 0.510204 0.000000
0.897959 0.510204 0.000000
0.918367 0.510204 0.000000
0.938776 0.510204 0.000000
0.959184 0.510204 0.000000
0.979592 0.510204 0.000000
1.000000 0.510204 0.000000
0.000000 0.530612 0.000000
0.020408 0.530612 0.000000
0.040816 0.530612 0.000000
0.061224 0.530612 0.000000
0.081633 0.530612 0.000000
0.102041 0.530612 0.000000
0.122449 0.530612 0.000000
0.142857 0.530612 0.000000
0.163265 0.530612 0.000000
0.183673 0.530612 0.000000
0.204082 0.530612 0.000000
0.224490 0.530612 0.000000
0.244898 0.530612 0.000000
0.265306 0.530612 0.000000
0.285714 0.530612 0.000000
0.306122 0.530612 0.000000
0.326531 0.530612 0.000000
0.346939 0.530612 0.000000
0.367347 0.530612 0.000000
0.387755 0.530612 0.000000
0.408163 0.530612 0.000000
0.428571 0.530612 0.000000
0.448980 0.530612 0.000000
0.469388 0.530612 0.000000
0.489796 0.530612 0.000000
0.510204 0.530612 0.000000
0.530612 0.530612 0.000000
0.551020 0.530612 0.000000
0.571429 0.530612 0.000000
0.591837 0.530612 0.000000
0.612245 0.530612 0.000000
0.632653 0.530612 0.000000
0.653061 0.530612 0.000000
0.673469 0.530612 0.000000
0.693878 0.530612 0.000000
0.714286 0.530612 0.000000
0.734694 0.530612 0.000000
0.755102 0.530612 0.000000
0.775510 0.530612 0.000000
0.795918 0.530612 0.000000
0.816327 0.530612 0.000000
0.836735 0.530612 0.000000
0.857143 0.530612 0.000000
0.877551 0.530612 0.000000
0.897959 0.530612 0.000000
0.918367 0.530612 0.000000
0.938776 0.530612 0.000000
0.959184 0.530612 0.000000
0.979592 0.530612 0.000000
1.000000 0.530612 0.000000
0.000000 0.551020 0.000000
0.020408 0.551020 0.000000
0.040816 0.551020 0.000000
0.061224 0.551020 0.000000
0.081633 0.551020 0.000000
0.102041 0.551020 0.000000
0.122449 0.551020 0.000000
0.142857 0.551020 0.000000
0.163265 0.551020 0.000000
0.183673 0.551020 0.000000
0.204082 0.551020 0.000000
0.224490 0.551020 0.000000
0.244898 0.551020 0.000000
0.265306 0.551020 0.000000
0.285714 0.551020 0.000000
0.306122 0.551020 0.000000
0.326531 0.551020 0.000000
0.346939 0.551020 0.000000
0.367347 0.551020 0.000000
0.387755 0.551020 0.000000
0.408163 0.551020 0.000000
0.428571 0.551020 0.000000
0.448980 0.551020 0.000000
0.469388 0.551020 0.000000
0.489796 0.551020 0.000000
0.510204 0.551020 0.000000
0.530612 0.551020 0.000000
0.551020 0.551020 0.000000
0.571429 0.551020 0.000000
0.591837 0.551020 0.000000
0.612245 0.551020 0.000000
0.632653 0.551020 0.000000
0.653061 0.551020 0.000000
0.673469 0.551020 0.000000
0.693878 0.551020 0.000000
0.714286 0.551020 0.000000
0.734694 0.551020 0.000000
0.755102 0.551020 0.000000
0.775510 0.551020 0.000000
0.795918 0.551020 0.000000
0.816327 0.551020 0.000000
0.836735 0.551020 0.000000
0.857143 0.551020 0.000000
0.877551 0.551020 0.000000
0.897959 0.551020 0.000000
0.918367 0.551020 0.000000
0.938776 0.551020 0.000000
0.959184 0.551020 0.000000
0.979592 0.551020 0.000000
1.000000 0.551020 0.000000
0.000000 0.571429 0.000000
0.020408 0.571429 0.000000
0.040816 0.571429 0.000000
0.061224 0.571429 0.000000
0.081633 0.571429 0.000000
0.102041 0.571429 0.000000
0.122449 0.571429 0.000000
0.142857 0.571429 0.000000
0.163265 0.571429 0.000000
0.183673 0.571429 0.000000
0.204082 0.571429 0.000000
0.224490 0.571429 0.000000
0.244898 0.571429 0.000000
0.265306 0.571429 0.000000
0.285714 0.571429 0.000000
0.306122 0.571429 0.000000
0.326531 0.571429 0.000000
0.346939 0.571429 0.000000
0.367347 0.571429 0.000000
0.387755 0.571429 0.000000
0.408163 0.571429 0.000000
0.428571 0.571429 0.000000
0.448980 0.571429 0.000000
0.469388 0.571429 0.000000
0.489796 0.571429 0.000000
0.510204 0.571429 0.000000
0.530612 0.571429 0.000000
0.551020 0.571429 0.000000
0.571429 0.571429 0.000000
0.591837 0.571429 0.000000
0.612245 0.571429 0.000000
0.632653 0.571429 0.000000
0.653061 0.571429 0.000000
0.673469 0.571429 0.000000
0.693878 0.571429 0.000000
0.714286 0.571429 0.000000
0.734694 0.571429 0.000000
0.755102 0.571429 0.000000
0.775510 0.571429 0.000000
0.795918 0.571429 0.000000
0.816327 0.571429 0.000000
0.836735 0.571429 0.000000
0.857143 0.571429 0.000000
0.877551 0.571429 0.000000
0.897959 0.571429 0.000000
0.918367 0.571429 0.000000
0.938776 0.571429 0.000000
0.959184 0.571429 0.000000
0.979592 0.571429 0.000000
1.000000 0.571429 0.000000
0.000000 0.591837 0.000000
0.020408 0.591837 0.000000
0.040816 0.591837 0.000000
0.061224 0.591837 0.000000
0.081633 0.591837 0.000000
0.102041 0.591837 0.000000
0.122449 0.591837 0.000000
0.142857 0.591837 0.000000
0.163265 0.591837 0.000000
0.183673 0.591837 0.000000
0.204082 0.591837 0.000000
0.224490 0.591837 0.000000
0.244898 0.591837 0.000000
0.265306 0.591837 0.000000
0.285714 0.591837 0.000000
0.306122 0.591837 0.000000
0.326531 0.591837 0.000000
0.346939 0.591837 0.000000
0.367347 0.591837 0.000000
0.387755 0.591837 0.000000
0.408163 0.591837 0.000000
0.428571 0.591837 0.000000
0.448980 0.591837 0.000000
0.469388 0.591837 0.000000
0.489796 0.591837 0.000000
0.510204 0.591837 0.000000
0.530612 0.591837 0.000000
0.551020 0.591837 0.000000
0.571429 0.591837 0.000000
0.591837 0.591837 0.000000
0.612245 0.591837 0.000000
0.632653 0.591837 0.000000
0.653061 0.591837 0.000000
0.673469 0.591837 0.000000
0.693878 0.591837 0.000000
0.714286 0.591837 0.000000
0.734694 0.591837 0.000000
0.755102 0.591837 0.000000
0.775510 0.591837 0.000000
0.795918 0.591837 0.000000
0.816327 0.591837 0.000000
0.836735 0.591837 0.000000
0.857143 0.591837 0.000000
0.877551 0.591837 0.000000
0.897959 0.591837 0.000000
0.918367 0.591837 0.000000
0.938776 0.591837 0.000000
0.959184 0.591837 0.000000
0.979592 0.591837 0.000000
1.000000 0.591837 0.000000
0.000000 0.612245 0.000000
0.020408 0.612245 0.000000
0.040816 0.612245 0.000000
0.061224 0.612245 0.000000
0.081633 0.612245 0.000000
0.102041 0.612245 0.000000
0.122449 0.612245 0.000000
0.142857 0.612245 0.000000
0.163265 0.612245 0.000000
0.183673 0.612245 0.000000
0.204082 0.612245 0.000000
0.224490 0.612245 0.000000
0.244898 0.612245 0.000000
0.265306 0.612245 0.000000
0.285714 0.612245 0.000000
0.306122 0.612245 0.000000
0.326531 0.612245 0.000000
0.346939 0.612245 0.000000
0.367347 0.612245 0.000000
0.387755 0.612245 0.000000
0.408163 0.612245 0.000000
0.428571 0.612245 0.000000
0.448980 0.612245 0.000000
0.469388 0.612245 0.000000
0.489796 0.612245 0.000000
0.510204 0.612245 0.000000
0.530612 0.612245 0.000000
0.551020 0.612245 0.000000
0.571429 0.612245 0.000000
0.591837 0.612245 0.000000
0.612245 0.612245 0.000000
0.632653 0.612245 0.000000
0.653061 0.612245 0.000000
0.673469 0.612245 0.000000
0.693878 0.612245 0.000000
0.714286 0.612245 0.000000
0.734694 0.612245 0.000000
0.755102 0.612245 0.000000
0.775510 0.612245 0.000000
0.795918 0.612245 0.000000
0.816327 0.612245 0.000000
0.836735 0.612245 0.000000
0.857143 0.612245 0.000000
0.877551 0.612245 0.000000
0.897959 0.612245 0.000000
0.918367 0.612245 0.000000
0.938776 0.612245 0.000000
0.959184 0.612245 0.000000
0.979592 0.612245 0.000000
1.000000 0.612245 0.000000
0.000000 0.632653 0.000000
0.020408 0.632653 0.000000
0.040816 0.632653 0.000000
0.061224 0.632653 0.000000
0.081633 0.632653 0.000000
0.102041 0.632653 0.000000
0.122449 0.632653 0.000000
0.142857 0.632653 0.000000
0.163265 0.632653 0.000000
0.183673 0.632653 0.000000
0.204082 0.632653 0.000000
0.224490 0.632653 0.000000
0.244898 0.632653 0.000000
0.265306 0.632653 0.000000
0.285714 0.632653 0.000000
0.306122 0.632653 0.000000
0.326531 0.632653 0.000000
0.346939 0.632653 0.000000
0.367347 0.632653 0.000000
0.387755 0.632653 0.000000
0.408163 0.632653 0.000000
0.428571 0.632653 0.000000
0.448980 0.632653 0.000000
0.469388 0.632653 0.000000
0.489796 0.632653 0.000000
0.510204 0.632653 0.000000
0.530612 0.632653 0.000000
0.551020 0.632653 0.000000
0.571429 0.632653 0.000000
0.591837 0.632653 0.000000
0.612245 0.632653 0.000000
0.632653 0.632653 0.000000
0.653061 0.632653 0.000000
0.673469 0.632653 0.000000
0.693878 0.632653 0.000000
0.714286 0.632653 0.000000
0.734694 0.632653 0.000000
0.755102 0.632653 0.000000
0.775510 0.632653 0.000000
0.795918 0.632653 0.000000
0.816327 0.632653 0.000000
0.836735 0.632653 0.000000
0.857143 0.632653 0.000000
0.877551 0.632653 0.000000
0.897959 0.632653 0.000000
0.918367 0.632653 0.000000
0.938776 0.632653 0.000000
0.959184 0.632653 0.000000
0.979592 0.632653 0.000000
1.000000 0.632653 0.000000
0.000000 0.653061 0.000000
0.020408 0.653061 0.000000
0.040816 0.653061 0.000000
0.061224 0.653061 0.000000
0.081633 0.653061 0.000000
0.102041 0.653061 0.000000
0.122449 0.653061 0.000000
0.142857 0.653061 0.000000
0.163265 0.653061 0.000000
0.183673 0.653061 0.000000
0.204082 0.653061 0.000000
0.224490 0.653061 0.000000
0.244898 0.653061 0.000000
0.265306 0.653061 0.000000
0.285714 0.653061 0.000000
0.306122 0.653061 0.000000
0.326531 0.653061 0.000000
0.346939 0.653061 0.000000
0.367347 0.653061 0.000000
0.387755 0.653061 0.000000
0.408163 0.653061 0.000000
0.428571 0.653061 0.000000
0.448980 0.653061 0.000000
0.469388 0.653061 0.000000
0.489796 0.653061 0.000000
0.510204 0.653061 0.000000
0.530612 0.653061 0.000000
0.551020 0.653061 0.000000
0.571429 0.653061 0.000000
0.591837 0.653061 0.000000
0.612245 0.653061 0.000000
0.632653 0.653061 0.000000
0.653061 0.653061 0.000000
0.673469 0.653061 0.000000
0.693878 0.653061 0.000000
0.714286 0.653061 0.000000
0.734694 0.653061 0.000000
0.755102 0.653061 0.000000
0.775510 0.653061 0.000000
0.795918 0.653061 0.000000
0.816327 0.653061 0.000000
0.836735 0.653061 0.000000
0.857143 0.653061 0.000000
0.877551 0.653061 0.000000
0.897959 0.653061 0.000000
0.918367 0.653061 0.000000
0.938776 0.653061 0.000000
0.959184 0.653061 0.000000
0.979592 0.653061 0.000000
1.000000 0.653061 0.000000
0.000000 0.673469 0.000000
0.020408 0.673469 0.000000
0.040816 0.673469 0.000000
0.061224 0.673469 0.000000
0.081633 0.673469 0.000000
0.102041 0.673469 0.000000
0.122449 0.673469 0.000000
0.142857 0.673469 0.000000
0.163265 0.673469 0.000000
0.183673 0.673469 0.000000
0.204082 0.673469 0.000000
0.224490 0.673469 0.000000
0.244898 0.673469 0.000000
0.265306 0.673469 0.000000
0.285714 0.673469 0.000000
0.306122 0.673469 0.000000
0.326531 0.673469 0.000000
0.346939 0.673469 0.000000
0.367347 0.673469 0.000000
0.387755 0.673469 0.000000
0.408163 0.673469 0.000000
0.428571 0.673469 0.000000
0.448980 0.673469 0.000000
0.469388 0.673469 0.000000
0.489796 0.673469 0.000000
0.510204 0.673469 0.000000
0.530612 0.673469 0.000000
0.551020 0.673469 0.000000
0.571429 0.673469 0.000000
0.591837 0.673469 0.000000
0.612245 0.673469 0.000000
0.632653 0.673469 0.000000
0.653061 0.673469 0.000000
0.673469 0.673469 0.000000
0.693878 0.673469 0.000000
0.714286 0.673469 0.000000
0.734694 0.673469 0.000000
0.755102 0.673469 0.000000
0.775510 0.673469 0.000000
0.795918 0.673469 0.000000
0.816327 0.673469 0.000000
0.836735 0.673469 0.000000
0.857143 0.673469 0.000000
0.877551 0.673469 0.000000
0.897959 0.673469 0.000000
0.918367 0.673469 0.000000
0.938776 0.673469 0.000000
0.959184 0.673469 0.000000
0.979592 0.673469 0.000000
1.000000 0.673469 0.000000
0.000000 0.693878 0.000000
0.020408 0.693878 0.000000
0.040816 0.693878 0.000000
0.061224 0.693878 0.000000
0.081633 0.693878 0.000000
0.102041 0.693878 0.000000
0.122449 0.693878 0.000000
0.142857 0.693878 0.000000
0.163265 0.693878 0.000000
0.183673 0.693878 0.000000
0.204082 0.693878 0.000000
0.224490 0.693878 0.000000
0.244898 0.693878 0.000000
0.265306 0.693878 0.000000
0.285714 0.693878 0.000000
0.306122 0.693878 0.000000
0.326531 0.693878 0.000000
0.346939 0.693878 0.000000
0.367347 0.693878 0.000000
0.387755 0.693878 0.000000
0.408163 0.693878 0.000000
0.428571 0.693878 0.000000
0.448980 0.693878 0.000000
0.469388 0.693878 0.000000
0.489796 0.693878 0.000000
0.510204 0.693878 0.000000
0.530612 0.693878 0.000000
0.551020 0.693878 0.000000
0.571429 0.693878 0.000000
0.591837 0.693878 0.000000
0.612245 0.693878 0.000000
0.632653 0.693878 0.000000
0.653061 0.693878 0.000000
0.673469 0.693878 0.000000
0.693878 0.693878 0.000000
0.714286 0.693878 0.000000
0.734694 0.693878 0.000000
0.755102 0.693878 0.000000
0.775510 0.693878 0.000000
0.795918 0.693878 0.000000
0.816327 0.693878 0.000000
0.836735 0.693878 0.000000
0.857143 0.693878 0.000000
0.877551 0.693878 0.000000
0.897959 0.693878 0.000000
0.918367 0.693878 0.000000
0.938776 0.693878 0.000000
0.959184 0.693878 0.000000
0.979592 0.693878 0.000000
1.000000 0.693878 0.000000
0.000000 0.714286 0.000000
0.020408 0.714286 0.000000
0.040816 0.714286 0.000000
0.061224 0.714286 0.000000
0.081633 0.714286 0.000000
0.102041 0.714286 0.000000
0.122449 0.714286 0.000000
0.142857 0.714286 0.000000
0.163265 0.714286 0.000000
0.183673 0.714286 0.000000
0.204082 0.714286 0.000000
0.224490 0.714286 0.000000
0.244898 0.714286 0.000000
0.265306 0.714286 0.000000
0.285714 0.714286 0.000000
0.306122 0.714286 0.000000
0.326531 0.714286 0.000000
0.346939 0.714286 0.000000
0.367347 0.714286 0.000000
0.387755 0.714286 0.000000
0.408163 0.714286 0.000000
0.428571 0.714286 0.000000
0.448980 0.714286 0.000000
0.469388 0.714286 0.000000
0.489796 0.714286 0.000000
0.510204 0.714286 0.000000
0.530612 0.714286 0.000000
0.551020 0.714286 0.000000
0.571429 0.714286 0.000000
0.591837 0.714286 0.000000
0.612245 0.714286 0.000000
0.632653 0.714286 0.000000
0.653061 0.714286 0.000000
0.673469 0.714286 0.000000
0.693878 0.714286 0.000000
0.714286 0.714286 0.000000
0.734694 0.714286 0.000000
0.755102 0.714286 0.000000
0.775510 0.714286 0.000000
0.795918 0.714286 0.000000
0.816327 0.714286 0.000000
0.836735 0.714286 0.000000
0.857143 0.714286 0.000000
0.877551 0.714286 0.000000
0.897959 0.714286 0.000000
0.918367 0.714286 0.000000
0.938776 0.714286 0.000000
0.959184 0.714286 0.000000
0.979592 0.714286 0.000000
1.000000 0.714286 0.000000
0.000000 0.734694 0.000000
0.020408 0.734694 0.000000
0.040816 0.734694 0.000000
0.061224 0.734694 0.000000
0.081633 0.734694 0.000000
0.102041 0.734694 0.000000
0.122449 0.734694 0.000000
0.142857 0.734694 0.000000
0.163265 0.734694 0.000000
0.183673 0.734694 0.000000
0.204082 0.734694 0.000000
0.224490 0.734694 0.000000
0.244898 0.734694 0.000000
0.265306 0.734694 0.000000
0.285714 0.734694 0.000000
0.306122 0.734694 0.000000
0.326531 0.734694 0.000000
0.346939 0.734694 0.000000
0.367347 0.734694 0.000000
0.387755 0.734694 0.000000
0.408163 0.734694 0.000000
0.428571 0.734694 0.000000
0.448980 0.734694 0.000000
0.469388 0.734694 0.000000
0.489796 0.734694 0.000000
0.510204 0.734694 0.000000
0.530612 0.734694 0.000000
0.551020 0.734694 0.000000
0.571429 0.734694 0.000000
0.591837 0.734694 0.000000
0.612245 0.734694 0.000000
0.632653 0.734694 0.000000
0.653061 0.734694 0.000000
0.673469 0.734694 0.000000
0.693878 0.734694 0.000000
0.714286 0.734694 0.000000
0.734694 0.734694 0.000000
0.755102 0.734694 0.000000
0.775510 0.734694 0.000000
0.795918 0.734694 0.000000
0.816327 0.734694 0.000000
0.836735 0.734694 0.000000
0.857143 0.734694 0.000000
0.877551 0.734694 0.000000
0.897959 0.734694 0.000000
0.918367 0.734694 0.000000
0.938776 0.734694 0.000000
0.959184 0.734694 0.000000
0.979592 0.734694 0.000000
1.000000 0.734694 0.000000
0.000000 0.755102 0.000000
0.020408 0.755102 0.000000
0.040816 0.755102 0.000000
0.061224 0.755102 0.000000
0.081633 0.755102 0.000000
0.102041 0.755102 0.000000
0.122449 0.755102 0.000000
0.142857 0.755102 0.000000
0.163265 0.755102 0.000000
0.183673 0.755102 0.000000
0.204082 0.755102 0.000000
0.224490 0.755102 0.000000
0.244898 0.755102 0.000000
0.265306 0.755102 0.000000
0.285714 0.755102 0.000000
0.306122 0.755102 0.000000
0.326531 0.755102 0.000000
0.346939 0.755102 0.000000
0.367347 0.755102 0.000000
0.387755 0.755102 0.000000
0.408163 0.755102 0.000000
0.428571 0.755102 0.000000
0.448980 0.755102 0.000000
0.469388 0.755102 0.000000
0.489796 0.755102 0.000000
0.510204 0.755102 0.000000
0.530612 0.755102 0.000000
0.551020 0.755102 0.000000
0.571429 0.755102 0.000000
0.591837 0.755102 0.000000
0.612245 0.755102 0.000000
0.632653 0.755102 0.000000
0.653061 0.755102 0.000000
0.673469 0.755102 0.000000
0.693878 0.755102 0.000000
0.714286 0.755102 0.000000
0.734694 0.755102 0.000000
0.755102 0.755102 0.000000
0.775510 0.755102 0.000000
0.795918 0.755102 0.000000
0.816327 0.755102 0.000000
0.836735 0.755102 0.000000
0.857143 0.755102 0.000000
0.877551 0.755102 0.000000
0.897959 0.755102 0.000000
0.918367 0.755102 0.000000
0.938776 0.755102 0.000000
0.959184 0.755102 0.000000
0.979592 0.755102 0.000000
1.000000 0.755102 0.000000
0.000000 0.775510 0.000000
0.020408 0.775510 0.000000
0.040816 0.775510 0.000000
0.061224 0.775510 0.000000
0.081633 0.775510 0.000000
0.102041 0.775510 0.000000
0.122449 0.775510 0.000000
0.142857 0.775510 0.000000
0.163265 0.775510 0.000000
0.183673 0.775510 0.000000
0.204082 0.775510 0.000000
0.224490 0.775510 0.000000
0.244898 0.775510 0.000000
0.265306 0.775510 0.000000
0.285714 0.775510 0.000000
0.306122 0.775510 0.000000
0.326531 0.775510 0.000000
0.346939 0.775510 0.000000
0.367347 0.775510 0.000000
0.387755 0.775510 0.000000
0.408163 0.775510 0.000000
0.428571 0.775510 0.000000
0.448980 0.775510 0.000000
0.469388 0.775510 0.000000
0.489796 0.775510 0.000000
0.510204 0.775510 0.000000
0.530612 0.775510 0.000000
0.551020 0.775510 0.000000
0.571429 0.775510 0.000000
0.591837 0.775510 0.000000
0.612245 0.775510 0.000000
0.632653 0.775510 0.000000
0.653061 0.775510 0.000000
0.673469 0.775510 0.000000
0.693878 0.775510 0.000000
0.714286 0.775510 0.000000
0.734694 0.775510 0.000000
0.755102 0.775510 0.000000
0.775510 0.775510 0.000000
0.795918 0.775510 0.000000
0.816327 0.775510 0.000000
0.836735 0.775510 0.000000
0.857143 0.775510 0.000000
0.877551 0.775510 0.000000
0.897959 0.775510 0.000000
0.918367 0.775510 0.000000
0.938776 0.775510 0.000000
0.959184 0.775510 0.000000
0.979592 0.775510 0.000000
1.000000 0.775510 0.000000
0.000000 0.795918 0.000000
0.020408 0.795918 0.000000
0.040816 0.795918 0.000000
0.061224 0.795918 0.000000
0.081633 0.795918 0.000000
0.102041 0.795918 0.000000
0.122449 0.795918 0.000000
0.142857 0.795918 0.000000
0.163265 0.795918 0.000000
0.183673 0.795918 0.000000
0.204082 0.795918 0.000000
0.224490 0.795918 0.000000
0.244898 0.795918 0.000000
0.265306 0.795918 0.000000
0.285714 0.795918 0.000000
0.306122 0.795918 0.000000
0.326531 0.795918 0.000000
0.346939 0.795918 0.000000
0.367347 0.795918 0.000000
0.387755 0.795918 0.000000
0.408163 0.795918 0.000000
0.428571 0.795918 0.000000
0.448980 0.795918 0.000000
0.469388 0.795918 0.000000
0.489796 0.795918 0.000000
0.510204 0.795918 0.000000
0.530612 0.795918 0.000000
0.551020 0.795918 0.000000
0.571429 0.795918 0.000000
0.591837 0.795918 0.000000
0.612245 0.795918 0.000000
0.632653 0.795918 0.000000
0.653061 0.795918 0.000000
0.673469 0.795918 0.000000
0.693878 0.795918 0.000000
0.714286 0.795918 0.000000
0.734694 0.795918 0.000000
0.755102 0.795918 0.000000
0.775510 0.795918 0.000000
0.795918 0.795918 0.000000
0.816327 0.795918 0.000000
0.836735 0.795918 0.000000
0.857143 0.795918 0.000000
0.877551 0.795918 0.000000
0.897959 0.795918 0.000000
0.918367 0.795918 0.000000
0.938776 0.795918 0.000000
0.959184 0.795918 0.000000
0.979592 0.795918 0.000000
1.000000 0.795918 0.000000
0.000000 0.816327 0.000000
0.020408 0.816327 0.000000
0.040816 0.816327 0.000000
0.061224 0.816327 0.000000
0.081633 0.816327 0.000000
0.102041 0.816327 0.000000
0.122449 0.816327 0.000000
0.142857 0.816327 0.000000
0.163265 0.816327 0.000000
0.183673 0.816327 0.000000
0.204082 0.816327 0.000000
0.224490 0.816327 0.000000
0.244898 0.816327 0.000000
0.265306 0.816327 0.000000
0.285714 0.816327 0.000000
0.306122 0.816327 0.000000
0.326531 0.816327 0.000000
0.346939 0.816327 0.000000
0.367347 0.816327 0.000000
0.387755 0.816327 0.000000
0.408163 0.816327 0.000000
0.428571 0.816327 0.000000
0.448980 0.816327 0.000000
0.469388 0.816327 0.000000
0.489796 0.816327 0.000000
0.510204 0.816327 0.000000
0.530612 0.816327 0.000000
0.551020 0.816327 0.000000
0.571429 0.816327 0.000000
0.591837 0.816327 0.000000
0.612245 0.816327 0.000000
0.632653 0.816327 0.000000
0.653061 0.816327 0.000000
0.673469 0.816327 0.000000
0.693878 0.816327 0.000000
0.714286 0.816327 0.000000
0.734694 0.816327 0.000000
0.755102 0.816327 0.000000
0.775510 0.816327 0.000000
0.795918 0.816327 0.000000
0.816327 0.816327 0.000000
0.836735 0.816327 0.000000
0.857143 0.816327 0.000000
0.877551 0.816327 0.000000
0.897959 0.816327 0.000000
0.918367 0.816327 0.000000
0.938776 0.816327 0.000000
0.959184 0.816327 0.000000
0.979592 0.816327 0.000000
1.000000 0.816327 0.000000
0.000000 0.836735 0.000000
0.020408 0.836735 0.000000
0.040816 0.836735 0.000000
0.061224 0.836735 0.000000
0.081633 0.836735 0.000000
0.102041 0.836735 0.000000
0.122449 0.836735 0.000000
0.142857 0.836735 0.000000
0.163265 0.836735 0.000000
0.183673 0.836735 0.000000
0.204082 0.836735 0.000000
0.224490 0.836735 0.000000
0.244898 0.836735 0.000000
0.265306 0.836735 0.000000
0.285714 0.836735 0.000000
0.306122 0.836735 0.000000
0.326531 0.836735 0.000000
0.346939 0.836735 0.000000
0.367347 0.836735 0.000000
0.387755 0.836735 0.000000
0.408163 0.836735 0.000000
0.428571 0.836735 0.000000
0.448980 0.836735 0.000000
0.469388 0.836735 0.000000
0.489796 0.836735 0.000000
0.510204 0.836735 0.000000
0.530612 0.836735 0.000000
0.551020 0.836735 0.000000
0.571429 0.836735 0.000000
0.591837 0.836735 0.000000
0.612245 0.836735 0.000000
0.632653 0.836735 0.000000
0.653061 0.836735 0.000000
0.673469 0.836735 0.000000
0.693878 0.836735 0.000000
0.714286 0.836735 0.000000
0.734694 0.836735 0.000000
0.755102 0.836735 0.000000
0.775510 0.836735 0.000000
0.795918 0.836735 0.000000
0.816327 0.836735 0.000000
0.836735 0.836735 0.000000
0.857143 0.836735 0.000000
0.877551 0.836735 0.000000
0.897959 0.836735 0.000000
0.918367 0.836735 0.000000
0.938776 0.836735 0.000000
0.959184 0.836735 0.000000
0.979592 0.836735 0.000000
1.000000 0.836735 0.000000
0.000000 0.857143 0.000000
0.020408 0.857143 0.000000
0.040816 0.857143 0.000000
0.061224 0.857143 0.000000
0.081633 0.857143 0.000000
0.102041 0.857143 0.000000
0.122449 0.857143 0.000000
0.142857 0.857143 0.000000
0.163265 0.857143 0.000000
0.183673 0.857143 0.000000
0.204082 0.857143 0.000000
0.224490 0.857143 0.000000
0.244898 0.857143 0.000000
0.265306 0.857143 0.000000
0.285714 0.857143 0.000000
0.306122 0.857143 0.000000
0.326531 0.857143 0.000000
0.346939 0.857143 0.000000
0.367347 0.857143 0.000000
0.387755 0.857143 0.000000
0.408163 0.857143 0.000000
0.428571 0.857143 0.000000
0.448980 0.857143 0.000000
0.469388 0.857143 0.000000
0.489796 0.857143 0.000000
0.510204 0.857143 0.000000
0.530612 0.857143 0.000000
0.551020 0.857143 0.000000
0.571429 0.857143 0.000000
0.591837 0.857143 0.000000
0.612245 0.857143 0.000000
0.632653 0.857143 0.000000
0.653061 0.857143 0.000000
0.673469 0.857143 0.000000
0.693878 0.857143 0.000000
0.714286 0.857143 0.000000
0.734694 0.857143 0.000000
0.755102 0.857143 0.000000
0.775510 0.857143 0.000000
0.795918 0.857143 0.000000
0.816327 0.857143 0.000000
0.836735 0.857143 0.000000
0.857143 0.857143 0.000000
0.877551 0.857143 0.000000
0.897959 0.857143 0.000000
0.918367 0.857143 0.000000
0.938776 0.857143 0.000000
0.959184 0.857143 0.000000
0.979592 0.857143 0.000000
1.000000 0.857143 0.000000
0.000000 0.877551 0.000000
0.020408 0.877551 0.000000
0.040816 0.877551 0.000000
0.061224 0.877551 0.000000
0.081633 0.877551 0.000000
0.102041 0.877551 0.000000
0.122449 0.877551 0.000000
0.142857 0.877551 0.000000
0.163265 0.877551 0.000000
0.183673 0.877551 0.000000
0.204082 0.877551 0.000000
0.224490 0.877551 0.000000
0.244898 0.877551 0.000000
0.265306 0.877551 0.000000
0.285714 0.877551 0.000000
0.306122 0.877551 0.000000
0.326531 0.877551 0.000000
0.346939 0.877551 0.000000
0.367347 0.877551 0.000000
0.387755 0.877551 0.000000
0.408163 0.877551 0.000000
0.428571 0.877551 0.000000
0.448980 0.877551 0.000000
0.469388 0.877551 0.000000
0.489796 0.877551 0.000000
0.510204 0.877551 0.000000
0.530612 0.877551 0.000000
0.551020 0.877551 0.000000
0.571429 0.877551 0.000000
0.591837 0.877551 0.000000
0.612245 0.877551 0.000000
0.632653 0.877551 0.000000
0.653061 0.877551 0.000000
0.673469 0.877551 0.000000
0.693878 0.877551 0.000000
0.714286 0.877551 0.000000
0.734694 0.877551 0.000000
0.755102 0.877551 0.000000
0.775510 0.877551 0.000000
0.795918 0.877551 0.000000
0.816327 0.877551 0.000000
0.836735 0.877551 0.000000
0.857143 0.877551 0.000000
0.877551 0.877551 0.000000
0.897959 0.877551 0.000000
0.918367 0.877551 0.000000
0.938776 0.877551 0.000000
0.959184 0.877551 0.000000
0.979592 0.877551 0.000000
1.000000 0.877551 0.000000
0.000000 0.897959 0.000000
0.020408 0.897959 0.000000
0.040816 0.897959 0.000000
0.061224 0.897959 0.000000
0.081633 0.897959 0.000000
0.102041 0.897959 0.000000
0.122449 0.897959 0.000000
0.142857 0.897959 0.000000
0.163265 0.897959 0.000000
0.183673 0.897959 0.000000
0.204082 0.897959 0.000000
0.224490 0.897959 0.000000
0.244898 0.897959 0.000000
0.265306 0.897959 0.000000
0.285714 0.897959 0.000000
0.306122 0.897959 0.000000
0.326531 0.897959 0.000000
0.346939 0.897959 0.000000
0.367347 0.897959 0.000000
0.387755 0.897959 0.000000
0.408163 0.897959 0.000000
0.428571 0.897959 0.000000
0.448980 0.897959 0.000000
0.469388 0.897959 0.000000
0.489796 0.897959 0.000000
0.510204 0.897959 0.000000
0.530612 0.897959 0.000000
0.551020 0.897959 0.000000
0.571429 0.897959 0.000000
0.591837 0.897959 0.000000
0.612245 0.897959 0.000000
0.632653 0.897959 0.000000
0.653061 0.897959 0.000000
0.673469 0.897959 0.000000
0.693878 0.897959 0.000000
0.714286 0.897959 0.000000
0.734694 0.897959 0.000000
0.755102 0.897959 0.000000
0.775510 0.897959 0.000000
0.795918 0.897959 0.000000
0.816327 0.897959 0.000000
0.836735 0.897959 0.000000
0.857143 0.897959 0.000000
0.877551 0.897959 0.000000
0.897959 0.897959 0.000000
0.918367 0.897959 0.000000
0.938776 0.897959 0.000000
0.959184 0.897959 0.000000
0.979592 0.897959 0.000000
1.000000 0.897959 0.000000
0.000000 0.918367 0.000000
0.020408 0.918367 0.000000
0.040816 0.918367 0.000000
0.061224 0.918367 0.000000
0.081633 0.918367 0.000000
0.102041 0.918367 0.000000
0.122449 0.918367 0.000000
0.142857 0.918367 0.000000
0.163265 0.918367 0.000000
0.183673 0.918367 0.000000
0.204082 0.918367 0.000000
0.224490 0.918367 0.000000
0.244898 0.918367 0.000000
0.265306 0.918367 0.000000
0.285714 0.918367 0.000000
0.306122 0.918367 0.000000
0.326531 0.918367 0.000000
0.346939 0.918367 0.000000
0.367347 0.918367 0.000000
0.387755 0.918367 0.000000
0.408163 0.918367 0.000000
0.428571 0.918367 0.000000
0.448980 0.918367 0.000000
0.469388 0.918367 0.000000
0.489796 0.918367 0.000000
0.510204 0.918367 0.000000
0.530612 0.918367 0.000000
0.551020 0.918367 0.000000
0.571429 0.918367 0.000000
0.591837 0.918367 0.000000
0.612245 0.918367 0.000000
0.632653 0.918367 0.000000
0.653061 0.918367 0.000000
0.673469 0.918367 0.000000
0.693878 0.918367 0.000000
0.714286 0.918367 0.000000
0.734694 0.918367 0.000000
0.755102 0.918367 0.000000
0.775510 0.918367 0.000000
0.795918 0.918367 0.000000
0.816327 0.918367 0.000000
0.836735 0.918367 0.000000
0.857143 0.918367 0.000000
0.877551 0.918367 0.000000
0.897959 0.918367 0.000000
0.918367 0.918367 0.000000
0.938776 0.918367 0.000000
0.959184 0.918367 0.000000
0.979592 0.918367 0.000000
1.000000 0.918367 0.000000
0.000000 0.938776 0.000000
0.020408 0.938776 0.000000
0.040816 0.938776 0.000000
0.061224 0.938776 0.000000
0.081633 0.938776 0.000000
0.102041 0.938776 0.000000
0.122449 0.938776 0.000000
0.142857 0.938776 0.000000
0.163265 0.938776 0.000000
0.183673 0.938776 0.000000
0.204082 0.938776 0.000000
0.224490 0.938776 0.000000
0.244898 0.938776 0.000000
0.265306 0.938776 0.000000
0.285714 0.938776 0.000000
0.306122 0.938776 0.000000
0.326531 0.938776 0.000000
0.346939 0.938776 0.000000
0.367347 0.938776 0.000000
0.387755 0.938776 0.000000
0.408163 0.938776 0.000000
0.428571 0.938776 0.000000
0.448980 0.938776 0.000000
0.469388 0.938776 0.000000
0.489796 0.938776 0.000000
0.510204 0.938776 0.000000
0.530612 0.938776 0.000000
0.551020 0.938776 0.000000
0.571429 0.938776 0.000000
0.591837 0.938776 0.000000
0.612245 0.938776 0.000000
0.632653 0.938776 0.000000
0.653061 0.938776 0.000000
0.673469 0.938776 0.000000
0.693878 0.938776 0.000000
0.714286 0.938776 0.000000
0.734694 0.938776 0.000000
0.755102 0.938776 0.000000
0.775510 0.938776 0.000000
0.795918 0.938776 0.000000
0.816327 0.938776 0.000000
0.836735 0.938776 0.000000
0.857143 0.938776 0.000000
0.877551 0.938776 0.000000
0.897959 0.938776 0.000000
0.918367 0.938776 0.000000
0.938776 0.938776 0.000000
0.959184 0.938776 0.000000
0.979592 0.938776 0.000000
1.000000 0.938776 0.000000
0.000000 0.959184 0.000000
0.020408 0.959184 0.000000
0.040816 0.959184 0.000000
0.061224 0.959184 0.000000
0.081633 0.959184 0.000000
0.102041 0.959184 0.000000
0.122449 0.959184 0.000000
0.142857 0.959184 0.000000
0.163265 0.959184 0.000000
0.183673 0.959184 0.000000
0.204082 0.959184 0.000000
0.224490 0.959184 0.000000
0.244898 0.959184 0.000000
0.265306 0.959184 0.000000
0.285714 0.959184 0.000000
0.306122 0.959184 0.000000
0.326531 0.959184 0.000000
0.346939 0.959184 0.000000
0.367347 0.959184 0.000000
0.387755 0.959184 0.000000
0.408163 0.959184 0.000000
0.428571 0.959184 0.000000
0.448980 0.959184 0.000000
0.469388 0.959184 0.000000
0.489796 0.959184 0.000000
0.510204 0.959184 0.000000
0.530612 0.959184 0.000000
0.551020 0.959184 0.000000
0.571429 0.959184 0.000000
0.591837 0.959184 0.000000
0.612245 0.959184 0.000000
0.632653 0.959184 0.000000
0.653061 0.959184 0.000000
0.673469 0.959184 0.000000
0.693878 0.959184 0.000000
0.714286 0.959184 0.000000
0.734694 0.959184 0.000000
0.755102 0.959184 0.000000
0.775510 0.959184 0.000000
0.795918 0.959184 0.000000
0.816327 0.959184 0.000000
0.836735 0.959184 0.000000
0.857143 0.959184 0.000000
0.877551 0.959184 0.000000
0.897959 0.959184 0.000000
0.918367 0.959184 0.000000
0.938776 0.959184 0.000000
0.959184 0.959184 0.000000
0.979592 0.959184 0.000000
1.000000 0.959184 0.000000
0.000000 0.979592 0.000000
0.020408 0.979592 0.000000
0.040816 0.979592 0.000000
0.061224 0.979592 0.000000
0.081633 0.979592 0.000000
0.102041 0.979592 0.000000
0.122449 0.979592 0.000000
0.142857 0.979592 0.000000
0.163265 0.979592 0.000000
0.183673 0.979592 0.000000
0.204082 0.979592 0.000000
0.224490 0.979592 0.000000
0.244898 0.979592 0.000000
0.265306 0.979592 0.000000
0.285714 0.979592 0.000000
0.306122 0.979592 0.000000
0.326531 0.979592 0.000000
0.346939 0.979592 0.000000
0.367347 0.979592 0.000000
0.387755 0.979592 0.000000
0.408163 0.979592 0.000000
0.428571 0.979592 0.000000
0.448980 0.979592 0.000000
0.469388 0.979592 0.000000
0.489796 0.979592 0.000000
0.510204 0.979592 0.000000
0.530612 0.979592 0.000000
0.551020 0.979592 0.000000
0.571429 0.979592 0.000000
0.591837 0.979592 0.000000
0.612245 0.979592 0.000000
0.632653 0.979592 0.000000
0.653061 0.979592 0.000000
0.673469 0.979592 0.000000
0.693878 0.979592 0.000000
0.714286 0.979592 0.000000
0.734694 0.979592 0.000000
0.755102 0.979592 0.000000
0.775510 0.979592 0.000000
0.795918 0.979592 0.000000
0.816327 0.979592 0.000000
0.836735 0.979592 0.000000
0.857143 0.979592 0.000000
0.877551 0.979592 0.000000
0.897959 0.979592 0.000000
0.918367 0.979592 0.000000
0.938776 0.979592 0.000000
0.959184 0.979592 0.000000
0.979592 0.979592 0.000000
1.000000 0.979592 0.000000
0.000000 1.000000 0.000000
0.020408 1.000000 0.000000
0.040816 1.000000 0.000000
0.061224 1.000000 0.000000
0.081633 1.000000 0.000000
0.102041 1.000000 0.000000
0.122449 1.000000 0.000000
0.142857 1.000000 0.000000
0.163265 1.000000 0.000000
0.183673 1.000000 0.000000
0.204082 1.000000 0.000000
0.224490 1.000000 0.000000
0.244898 1.000000 0.000000
0.265306 1.000000 0.000000
0.285714 1.000000 0.000000
0.306122 1.000000 0.000000
0.326531 1.000000 0.000000
0.346939 1.000000 0.000000
0.367347 1.000000 0.000000
0.387755 1.000000 0.000000
0.408163 1.000000 0.000000
0.428571 1.000000 0.000000
0.448980 1.000000 0.000000
0.469388 1.000000 0.000000
0.489796 1.000000 0.000000
0.510204 1.000000 0.000000
0.530612 1.000000 0.000000
0.551020 1.000000 0.000000
0.571429 1.000000 0.000000
0.591837 1.000000 0.000000
0.612245 1.000000 0.000000
0.632653 1.000000 0.000000
0.653061 1.000000 0.000000
0.673469 1.000000 0.000000
0.693878 1.000000 0.000000
0.714286 1.000000 0.000000
0.734694 1.000000 0.000000
0.755102 1.000000 0.000000
0.775510 1.000000 0.000000
0.795918 1.000000 0.000000
0.816327 1.000000 0.000000
0.836735 1.000000 0.000000
0.857143 1.000000 0.000000
0.877551 1.000000 0.000000
0.897959 1.000000 0.000000
0.918367 1.000000 0.000000
0.938776 1.000000 0.000000
0.959184 1.000000 0.000000
0.979592 1.000000 0.000000
1.000000 1.000000 0.000000

POINT_DATA 2500
SCALARS u_field float 1
LOOKUP_TABLE default
-0.090838
-0.079087
-0.067009
-0.054596
-0.041846
-0.028756
-0.015320
-0.001535
0.012601
0.027093
0.041942
0.057151
0.072724
0.088661
0.104965
0.121638
0.138681
0.156096
0.173883
0.192044
0.210580
0.229492
0.248779
0.268443
0.288484
0.308903
0.329701
0.350876
0.372432
0.394367
0.416683
0.439380
0.462460
0.485924
0.509773
0.534008
0.558631
0.583644
0.609048
0.634845
0.661037
0.687625
0.714610
0.741993
0.769774
0.797953
0.826529
0.855497
0.884856
0.914598
-0.081948
-0.070191
-0.058105
-0.045685
-0.032926
-0.019824
-0.006377
0.007420
0.021570
0.036076
0.050941
0.066166
0.081756
0.097711
0.114034
0.130726
0.147789
0.165224
0.183032
0.201215
0.219773
0.238707
0.258017
0.277705
0.297770
0.318212
0.339034
0.360234
0.381814
0.403774
0.426114
0.448837
0.471942
0.495430
0.519304
0.543565
0.568213
0.593252
0.618681
0.644504
0.670722
0.697336
0.724347
0.751757
0.779565
0.807772
0.836375
0.865372
0.894760
0.924533
-0.073404
-0.061643
-0.049551
-0.037123
-0.024355
-0.011244
0.002214
0.016022
0.030185
0.044704
0.059582
0.074823
0.090428
0.106400
0.122740
0.139450
0.156532
0.173987
0.191815
0.210018
0.228597
0.247552
0.266884
0.286593
0.306681
0.327146
0.347990
0.369214
0.390817
0.412800
0.435165
0.457911
0.481040
0.504553
0.528451
0.552736
0.577409
0.602472
0.627926
0.653774
0.680017
0.706657
0.733694
0.761130
0.788965
0.817198
0.845829
0.874854
0.904271
0.934074
-0.065208
-0.053442
-0.041345
-0.028911
-0.016136
-0.003017
0.010451
0.024269
0.038443
0.052974
0.067866
0.083121
0.098741
0.114728
0.131084
0.147811
0.164910
0.182382
0.200229
0.218452
0.237050
0.256025
0.275377
0.295108
0.315216
0.335703
0.356569
0.377814
0.399440
0.421446
0.443833
0.466602
0.489754
0.513290
0.537212
0.561520
0.586217
0.611303
0.636782
0.662654
0.688921
0.715586
0.742648
0.770109
0.797970
0.826230
0.854888
0.883942
0.913387
0.943219
-0.057359
-0.045591
-0.033489
-0.021050
-0.008268
0.004858
0.018333
0.032161
0.046345
0.060887
0.075791
0.091058
0.106691
0.122693
0.139064
0.155806
0.172921
0.190410
0.208274
0.226514
0.245131
0.264125
0.283496
0.303246
0.323374
0.343882
0.364768
0.386034
0.407681
0.429708
0.452117
0.474908
0.498082
0.521640
0.545584
0.569915
0.594635
0.619744
0.645246
0.671142
0.697433
0.724122
0.751209
0.778695
0.806581
0.834867
0.863552
0.892633
0.922107
0.951967
-0.049858
-0.038088
-0.025983
-0.013540
-0.000754
0.012379
0.025862
0.039697
0.053890
0.068442
0.083356
0.098635
0.114280
0.130294
0.146678
0.163435
0.180565
0.198069
0.215949
0.234206
0.252839
0.271850
0.291240
0.311008
0.331155
0.351681
0.372587
0.393873
0.415539
0.437587
0.460016
0.482827
0.506023
0.529602
0.553568
0.577920
0.602662
0.627794
0.653319
0.679237
0.705552
0.732264
0.759374
0.786885
0.814797
0.843108
0.871819
0.900927
0.930428
0.960318
-0.042706
-0.030935
-0.018828
-0.006382
0.006408
0.019546
0.033034
0.046877
0.061077
0.075637
0.090561
0.105849
0.121505
0.137531
0.153927
0.170696
0.187840
0.205358
0.223253
0.241524
0.260173
0.279201
0.298607
0.318392
0.338556
0.359100
0.380024
0.401328
0.423013
0.445080
0.467529
0.490360
0.513575
0.537175
0.561161
0.585535
0.610297
0.635451
0.660997
0.686938
0.713275
0.740010
0.767144
0.794679
0.822615
0.850952
0.879689
0.908823
0.938351
0.968269
-0.035902
-0.024131
-0.012024
0.000424
0.013217
0.026358
0.039851
0.053699
0.067906
0.082473
0.097404
0.112701
0.128367
0.144402
0.160810
0.177590
0.194746
0.212277
0.230184
0.248470
0.267133
0.286175
0.305596
0.325397
0.345577
0.366137
0.387078
0.408400
0.430103
0.452187
0.474654
0.497504
0.520738
0.544358
0.568363
0.592757
0.617540
0.642714
0.668282
0.694244
0.720603
0.747360
0.774518
0.802076
0.830036
0.858397
0.887159
0.916319
0.945875
0.975820
-0.029448
-0.017678
-0.005571
0.006878
0.019672
0.032815
0.046312
0.060164
0.074375
0.088948
0.103886
0.119191
0.134864
0.150908
0.167325
0.184115
0.201282
0.218824
0.236743
0.255041
0.273717
0.292772
0.312207
0.332022
0.352217
0.372793
0.393749
0.415087
0.436806
0.458908
0.481392
0.504259
0.527512
0.551149
0.575174
0.599587
0.624389
0.649583
0.675171
0.701154
0.727534
0.754313
0.781493
0.809074
0.837057
0.865443
0.894230
0.923416
0.952998
0.982971
-0.023343
-0.011575
0.000530
0.012978
0.025773
0.038917
0.052415
0.066271
0.080486
0.095063
0.110006
0.125316
0.140996
0.157048
0.173472
0.190272
0.207447
0.224999
0.242929
0.261237
0.279925
0.298992
0.318439
0.338267
0.358476
0.379065
0.400036
0.421389
0.443123
0.465240
0.487741
0.510625
0.533894
0.557549
0.581591
0.606022
0.630844
0.656057
0.681665
0.707668
0.734069
0.760869
0.788070
0.815674
0.843680
0.872089
0.900901
0.930112
0.959721
0.989721
-0.017586
-0.005823
0.006279
0.018726
0.031519
0.044663
0.058162
0.072019
0.086236
0.100816
0.115763
0.131078
0.146763
0.162820
0.179251
0.196058
0.213241
0.230801
0.248740
0.267058
0.285755
0.304833
0.324292
0.344131
0.364352
0.384954
0.405938
0.427304
0.449053
0.471185
0.493700
0.516600
0.539885
0.563556
0.587616
0.612064
0.636904
0.662135
0.687762
0.713784
0.740205
0.767026
0.794248
0.821874
0.849903
0.878335
0.907171
0.936407
0.966041
0.996068
-0.012180
-0.000422
0.011677
0.024119
0.036910
0.050053
0.063551
0.077408
0.091626
0.106208
0.121157
0.136475
0.152164
0.168225
0.184661
0.201474
0.218663
0.236230
0.254176
0.272502
0.291208
0.310295
0.329764
0.349614
0.369845
0.390459
0.411455
0.432833
0.454595
0.476740
0.499269
0.522183
0.545483
0.569171
0.593246
0.617711
0.642567
0.667817
0.693461
0.719503
0.745943
0.772784
0.800027
0.827674
0.855725
0.884180
0.913039
0.942300
0.971960
1.002013
-0.007124
0.004628
0.016721
0.029159
0.041947
0.055087
0.068583
0.082438
0.096655
0.111238
0.126187
0.141507
0.157198
0.173262
0.189702
0.206518
0.223712
0.241285
0.259237
0.277570
0.296283
0.315378
0.334855
0.354713
0.374954
0.395578
0.416585
0.437974
0.459748
0.481905
0.504447
0.527375
0.550689
0.574391
0.598481
0.622962
0.647835
0.673101
0.698763
0.724823
0.751282
0.778142
0.805406
0.833073
0.861146
0.889624
0.918506
0.947791
0.977476
1.007555
-0.002417
0.009327
0.021413
0.033846
0.046628
0.059763
0.073256
0.087108
0.101323
0.115904
0.130853
0.146173
0.161865
0.177930
0.194372
0.211191
0.228388
0.245965
0.263922
0.282259
0.300979
0.320080
0.339564
0.359430
0.379679
0.400312
0.421327
0.442727
0.464511
0.486680
0.509234
0.532174
0.555501
0.579217
0.603321
0.627817
0.652705
0.677988
0.703667
0.729744
0.756221
0.783100
0.810383
0.838071
0.866165
0.894665
0.923570
0.952879
0.982589
1.012694
0.001939
0.013674
0.025752
0.038177
0.050953
0.064082
0.077570
0.091418
0.105630
0.120208
0.135155
0.150472
0.166163
0.182229
0.198671
0.215492
0.232690
0.250270
0.268229
0.286571
0.305295
0.324401
0.343890
0.363763
0.384019
0.404659
0.425683
0.447091
0.468885
0.491064
0.513628
0.536580
0.559919
0.583647
0.607765
0.632275
0.657178
0.682476
0.708171
0.734265
0.760760
0.787658
0.814960
0.842668
0.870782
0.899304
0.928231
0.957564
0.987298
1.017428
0.005944
0.017669
0.029738
0.042154
0.054921
0.068044
0.081525
0.095367
0.109574
0.124147
0.139090
0.154405
0.170094
0.186158
0.202599
0.219419
0.236618
0.254198
0.272160
0.290504
0.309230
0.328340
0.347833
0.367711
0.387972
0.408619
0.429649
0.451066
0.472867
0.495055
0.517630
0.540592
0.563942
0.587682
0.611812
0.636336
0.661253
0.686565
0.712276
0.738386
0.764898
0.791813
0.819134
0.846861
0.874996
0.903539
0.932489
0.961844
0.991602
1.021758
0.009599
0.021312
0.033369
0.045775
0.058533
0.071647
0.085120
0.098955
0.113155
0.127722
0.142660
0.157971
0.173655
0.189716
0.206155
0.222973
0.240171
0.257750
0.275712
0.294056
0.312784
0.331896
0.351393
0.371273
0.391539
0.412190
0.433227
0.454650
0.476459
0.498654
0.521237
0.544209
0.567569
0.591320
0.615462
0.639998
0.664928
0.690255
0.715980
0.742106
0.768635
0.795567
0.822906
0.850653
0.878807
0.907371
0.936342
0.965721
0.995502
1.025683
0.012902
0.024602
0.036647
0.049041
0.061788
0.074891
0.088354
0.102180
0.116372
0.130932
0.145864
0.161168
0.176847
0.192903
0.209338
0.226152
0.243347
0.260925
0.278885
0.297228
0.315957
0.335069
0.354567
0.374450
0.394719
0.415374
0.436415
0.457842
0.479657
0.501860
0.524450
0.547430
0.570800
0.594561
0.618714
0.643261
0.668204
0.693544
0.719284
0.745425
0.771969
0.798919
0.826275
0.854040
0.882214
0.910798
0.939791
0.969192
0.998997
1.029202
0.015854
0.027539
0.039569
0.051950
0.064685
0.077776
0.091228
0.105044
0.119226
0.133777
0.148700
0.163996
0.179668
0.195718
0.212147
0.228956
0.246147
0.263721
0.281678
0.300020
0.318746
0.337858
0.357356
0.377240
0.397510
0.418167
0.439212
0.460643
0.482463
0.504671
0.527269
0.550256
0.573634
0.597404
0.621567
0.646125
0.671080
0.696432
0.722186
0.748341
0.774901
0.801867
0.829240
0.857023
0.885217
0.913821
0.942835
0.972257
1.002086
1.032315
0.018453
0.030122
0.042137
0.054503
0.067223
0.080301
0.093740
0.107544
0.121714
0.136255
0.151168
0.166455
0.182118
0.198160
0.214581
0.231384
0.248569
0.266138
0.284091
0.302429
0.321152
0.340262
0.359758
0.379642
0.399912
0.420571
0.441617
0.463052
0.484875
0.507088
0.529691
0.552684
0.576069
0.599848
0.624020
0.648588
0.673554
0.698919
0.724685
0.750854
0.777429
0.804410
0.831801
0.859602
0.887814
0.916438
0.945472
0.974917
1.004768
1.035021
0.020700
0.032351
0.044349
0.056698
0.069403
0.082466
0.095891
0.109680
0.123838
0.138366
0.153267
0.168543
0.184196
0.200228
0.216641
0.233435
0.250613
0.268175
0.286122
0.304454
0.323174
0.342280
0.361774
0.381655
0.401925
0.422583
0.443630
0.465066
0.486892
0.509109
0.531716
0.554715
0.578107
0.601892
0.626073
0.650651
0.675627
0.701003
0.726781
0.752964
0.779553
0.806550
0.833956
0.861775
0.890005
0.918648
0.947703
0.977169
1.007043
1.037320
0.022594
0.034225
0.046205
0.058536
0.071223
0.084269
0.097678
0.111452
0.125595
0.140109
0.154997
0.170260
0.185901
0.201922
0.218324
0.235109
0.252278
0.269831
0.287771
0.306097
0.324810
0.343911
0.363401
0.383279
0.403547
0.424203
0.445250
0.466687
0.488514
0.510733
0.533344
0.556347
0.579744
0.603536
0.627725
0.652311
0.677297
0.702684
0.728474
0.754669
0.781272
0.808283
0.835706
0.863541
0.891789
0.920452
0.949527
0.979014
1.008910
1.039211
0.024135
0.035745
0.047704
0.060015
0.072683
0.085711
0.099102
0.112859
0.126986
0.141484
0.156356
0.171606
0.187233
0.203241
0.219631
0.236404
0.253562
0.271106
0.289037
0.307354
0.326061
0.345155
0.364639
0.384513
0.404777
0.425431
0.446476
0.467912
0.489740
0.511960
0.534573
0.557580
0.580981
0.604779
0.628974
0.653569
0.678563
0.703960
0.729761
0.755969
0.782585
0.809611
0.837049
0.864901
0.893167
0.921847
0.950942
0.980450
1.010368
1.040692
0.025321
0.036909
0.048845
0.061135
0.073782
0.086790
0.100161
0.113900
0.128008
0.142489
0.157345
0.172578
0.188190
0.204184
0.220560
0.237320
0.254466
0.271998
0.289918
0.308226
0.326924
0.346011
0.365488
0.385355
0.405614
0.426264
0.447306
0.468740
0.490568
0.512788
0.535402
0.558412
0.581818
0.605620
0.629821
0.654422
0.679425
0.704831
0.730643
0.756863
0.783491
0.810531
0.837984
0.865852
0.894135
0.922834
0.951949
0.981477
1.011417
1.041764
0.026153
0.037716
0.049629
0.061895
0.074520
0.087506
0.100856
0.114574
0.128663
0.143124
0.157962
0.173177
0.188772
0.204750
0.221110
0.237856
0.254988
0.272507
0.290415
0.308712
0.327399
0.346477
0.365945
0.385806
0.406058
0.426703
0.447741
0.469172
0.490997
0.513217
0.535832
0.558843
0.582251
0.606058
0.630264
0.654872
0.679882
0.705297
0.731119
0.757349
0.783990
0.811044
0.838511
0.866395
0.894695
0.923412
0.952546
0.982094
1.012056
1.042425
0.026630
0.038167
0.050054
0.062295
0.074896
0.087858
0.101185
0.114881
0.128948
0.143388
0.158206
0.173402
0.188978
0.204937
0.221281
0.238010
0.255127
0.272632
0.290526
0.308810
0.327485
0.346552
0.366011
0.385863
0.406108
0.426746
0.447778
0.469205
0.491028
0.513245
0.535860
0.558872
0.582282
0.606091
0.630302
0.654915
0.679932
0.705356
0.731187
0.757428
0.784080
0.811147
0.838629
0.866528
0.894844
0.923579
0.952732
0.982301
1.012283
1.042675
0.026751
0.038259
0.050119
0.062334
0.074908
0.087845
0.101147
0.114819
0.128863
0.143281
0.158076
0.173251
0.188807
0.204746
0.221071
0.237782
0.254882
0.272371
0.290249
0.308520
0.327182
0.346236
0.365684
0.385526
0.405762
0.426392
0.447418
0.468840
0.490658
0.512873
0.535486
0.558497
0.581908
0.605720
0.629934
0.654552
0.679576
0.705006
0.730846
0.757097
0.783761
0.810840
0.838336
0.866250
0.894583
0.923335
0.952506
0.982095
1.012098
1.042513
0.026516
0.037994
0.049824
0.062011
0.074557
0.087466
0.100743
0.114388
0.128406
0.142800
0.157572
0.172723
0.188257
0.204176
0.220480
0.237172
0.254252
0.271723
0.289585
0.307840
0.326487
0.345528
0.364963
0.384793
0.405019
0.425641
0.446659
0.468074
0.489887
0.512098
0.534708
0.557718
0.581129
0.604943
0.629160
0.653782
0.678811
0.704248
0.730096
0.756356
0.783031
0.810122
0.837632
0.865560
0.893909
0.922678
0.951868
0.981476
1.011501
1.041937
0.025923
0.037370
0.049169
0.061325
0.073841
0.086722
0.099969
0.113587
0.127579
0.141946
0.156692
0.171819
0.187329
0.203224
0.219506
0.236177
0.253237
0.270688
0.288532
0.306769
0.325400
0.344426
0.363847
0.383665
0.403879
0.424490
0.445499
0.466906
0.488713
0.510919
0.533525
0.556533
0.579944
0.603758
0.627977
0.652602
0.677636
0.703080
0.728935
0.755205
0.781890
0.808993
0.836515
0.864458
0.892822
0.921608
0.950816
0.980443
1.010488
1.040947
0.024973
0.036386
0.048152
0.060276
0.072761
0.085610
0.098827
0.112415
0.126378
0.140717
0.155436
0.170536
0.186020
0.201891
0.218149
0.234796
0.251834
0.269265
0.287089
0.305307
0.323920
0.342929
0.362335
0.382138
0.402340
0.422939
0.443938
0.465337
0.487135
0.509335
0.531937
0.554942
0.578351
0.602164
0.626385
0.651013
0.676051
0.701500
0.727363
0.753640
0.780336
0.807450
0.834984
0.862941
0.891321
0.920123
0.949349
0.978995
1.009061
1.039541
0.023664
0.035042
0.046773
0.058862
0.071314
0.084130
0.097315
0.110872
0.124803
0.139112
0.153802
0.168874
0.184331
0.200174
0.216407
0.233030
0.250044
0.267452
0.285254
0.303452
0.322045
0.341037
0.360426
0.380213
0.400400
0.420987
0.441975
0.463363
0.485153
0.507346
0.529942
0.552943
0.576349
0.600161
0.624382
0.649012
0.674053
0.699508
0.725377
0.751663
0.778367
0.805492
0.833039
0.861009
0.889403
0.918222
0.947466
0.977131
1.007216
1.037718
0.021996
0.033336
0.045031
0.057084
0.069500
0.082281
0.095432
0.108955
0.122854
0.137131
0.151790
0.166832
0.182259
0.198074
0.214279
0.230875
0.247865
0.265248
0.283027
0.301203
0.319775
0.338747
0.358118
0.377889
0.398060
0.418633
0.439607
0.460984
0.482765
0.504949
0.527539
0.550534
0.573937
0.597747
0.621968
0.646599
0.671643
0.697102
0.722977
0.749270
0.775983
0.803118
0.830677
0.858660
0.887069
0.915904
0.945165
0.974849
1.004954
1.035477
0.019969
0.031269
0.042925
0.054940
0.067318
0.080062
0.093177
0.106665
0.120529
0.134773
0.149398
0.164408
0.179804
0.195589
0.211765
0.228333
0.245295
0.262652
0.280406
0.298558
0.317109
0.336059
0.355410
0.375162
0.395317
0.415874
0.436835
0.458199
0.479969
0.502144
0.524726
0.547715
0.571113
0.594921
0.619140
0.643772
0.668818
0.694280
0.720160
0.746460
0.773182
0.800327
0.827897
0.855893
0.884317
0.913167
0.942445
0.972147
1.002273
1.032817
0.017580
0.028839
0.040454
0.052429
0.064767
0.077473
0.090549
0.104000
0.117828
0.132036
0.146626
0.161602
0.176965
0.192718
0.208862
0.225400
0.242333
0.259663
0.277391
0.295517
0.314044
0.332972
0.352301
0.372034
0.392170
0.412710
0.433655
0.455007
0.476764
0.498929
0.521502
0.544484
0.567877
0.591681
0.615898
0.640529
0.665577
0.691042
0.716927
0.743233
0.769963
0.797117
0.824698
0.852707
0.881144
0.910010
0.939304
0.969025
0.999170
1.029735
0.014831
0.026046
0.037618
0.049550
0.061847
0.074512
0.087548
0.100960
0.114749
0.128919
0.143472
0.158412
0.173740
0.189459
0.205571
0.222077
0.238979
0.256280
0.273979
0.292079
0.310580
0.329483
0.348790
0.368501
0.388618
0.409140
0.430069
0.451405
0.473149
0.495302
0.517865
0.540839
0.564225
0.588025
0.612239
0.636869
0.661917
0.687385
0.713274
0.739586
0.766323
0.793487
0.821078
0.849099
0.877550
0.906431
0.935742
0.965481
0.995645
1.026231
0.011719
0.022889
0.034416
0.046304
0.058557
0.071178
0.084173
0.097542
0.111291
0.125421
0.139936
0.154838
0.170129
0.185812
0.201889
0.218361
0.235231
0.252500
0.270170
0.288241
0.306715
0.325592
0.344875
0.364563
0.384659
0.405161
0.426072
0.447392
0.469122
0.491262
0.513814
0.536779
0.560158
0.583952
0.608162
0.632791
0.657839
0.683308
0.709201
0.735518
0.762262
0.789434
0.817036
0.845068
0.873532
0.902429
0.931756
0.961512
0.991696
1.022302
0.008245
0.019367
0.030846
0.042687
0.054895
0.067471
0.080421
0.093747
0.107453
0.121542
0.136015
0.150877
0.166130
0.181775
0.197815
0.214252
0.231088
0.248324
0.265961
0.284002
0.302447
0.321298
0.340554
0.360219
0.380291
0.400773
0.421664
0.442967
0.464681
0.486807
0.509348
0.532302
0.555673
0.579460
0.603666
0.628292
0.653339
0.678809
0.704705
0.731026
0.757776
0.784957
0.812568
0.840612
0.869090
0.898000
0.927343
0.957118
0.987320
1.017947
0.004407
0.015478
0.026908
0.038701
0.050860
0.063390
0.076293
0.089574
0.103235
0.117279
0.131710
0.146530
0.161741
0.177347
0.193349
0.209748
0.226548
0.243749
0.261353
0.279362
0.297776
0.316597
0.335827
0.355465
0.375514
0.395973
0.416844
0.438127
0.459825
0.481936
0.504463
0.527407
0.550768
0.574548
0.598748
0.623371
0.648416
0.673887
0.699784
0.726110
0.752866
0.780054
0.807675
0.835730
0.864220
0.893144
0.922503
0.952295
0.982517
1.013164
0.000204
0.011224
0.022602
0.034344
0.046453
0.058933
0.071787
0.085020
0.098634
0.112632
0.127018
0.141794
0.156963
0.172526
0.188487
0.204847
0.221609
0.238773
0.256342
0.274317
0.292699
0.311490
0.330691
0.350302
0.370324
0.390760
0.411609
0.432872
0.454551
0.476646
0.499159
0.522090
0.545441
0.569212
0.593407
0.618024
0.643068
0.668538
0.694437
0.720766
0.747527
0.774722
0.802352
0.830418
0.858920
0.887859
0.917234
0.947042
0.977283
1.007950
-0.004363
0.006601
0.017926
0.029614
0.041671
0.054099
0.066903
0.080085
0.093650
0.107600
0.121939
0.136669
0.151792
0.167312
0.183230
0.199549
0.216271
0.233397
0.250928
0.268867
0.287216
0.305974
0.325144
0.344726
0.364721
0.385132
0.405957
0.427199
0.448858
0.470936
0.493433
0.516351
0.539690
0.563452
0.587639
0.612252
0.637292
0.662761
0.688661
0.714993
0.741759
0.768960
0.796599
0.824674
0.853189
0.882141
0.911531
0.941357
0.971616
1.002303
-0.009297
0.001611
0.012879
0.024512
0.036513
0.048887
0.061638
0.074768
0.088282
0.102181
0.116471
0.131152
0.146229
0.161702
0.177576
0.193851
0.210531
0.227616
0.245109
0.263011
0.281323
0.300047
0.319184
0.338736
0.358703
0.379086
0.399887
0.421106
0.442744
0.464803
0.487284
0.510187
0.533513
0.557265
0.581444
0.606050
0.631086
0.656553
0.682453
0.708787
0.735558
0.762765
0.790412
0.818498
0.847023
0.875989
0.905395
0.935237
0.965514
0.996222
-0.014597
-0.003749
0.007461
0.019035
0.030980
0.043297
0.055992
0.069068
0.082528
0.096375
0.110612
0.125243
0.140270
0.155696
0.171523
0.187753
0.204388
0.221431
0.238883
0.256745
0.275020
0.293708
0.312811
0.332330
0.352267
0.372622
0.393396
0.414591
0.436207
0.458246
0.480708
0.503595
0.526908
0.550649
0.574818
0.599418
0.624449
0.649913
0.675812
0.702148
0.728922
0.756135
0.783789
0.811884
0.840421
0.869400
0.898821
0.928680
0.958975
0.989702
-0.020265
-0.009479
0.001670
0.013184
0.025069
0.037327
0.049964
0.062983
0.076387
0.090179
0.104362
0.118940
0.133916
0.149291
0.165069
0.181252
0.197841
0.214839
0.232248
0.250069
0.268304
0.286955
0.306022
0.325507
0.345411
0.365736
0.386482
0.407651
0.429244
0.451261
0.473704
0.496574
0.519873
0.543601
0.567760
0.592351
0.617376
0.642837
0.668735
0.695072
0.721849
0.749067
0.776728
0.804832
0.833380
0.862372
0.891807
0.921682
0.951996
0.982743
-0.026301
-0.015579
-0.004495
0.006957
0.018779
0.030977
0.043553
0.056512
0.069857
0.083592
0.097719
0.112242
0.127164
0.142487
0.158214
0.174346
0.190887
0.207839
0.225203
0.242980
0.261174
0.279785
0.298814
0.318264
0.338135
0.358427
0.379144
0.400286
0.421853
0.443847
0.466270
0.489122
0.512404
0.536119
0.560266
0.584849
0.609867
0.635324
0.661220
0.687556
0.714335
0.741558
0.769226
0.797338
0.825897
0.854901
0.884350
0.914242
0.944574
0.975341
-0.032707
-0.022052
-0.011034
0.000353
0.012110
0.024244
0.036758
0.049655
0.062939
0.076614
0.090682
0.105148
0.120013
0.135281
0.150955
0.167035
0.183526
0.200429
0.217745
0.235478
0.253628
0.272197
0.291187
0.310599
0.330434
0.350694
0.371379
0.392492
0.414032
0.436002
0.458403
0.481235
0.504500
0.528200
0.552335
0.576908
0.601919
0.627370
0.653263
0.679599
0.706380
0.733606
0.761279
0.789401
0.817969
0.846986
0.876449
0.906357
0.936706
0.967492
-0.039482
-0.028897
-0.017947
-0.006629
0.005061
0.017129
0.029577
0.042409
0.055630
0.069243
0.083250
0.097656
0.112463
0.127673
0.143291
0.159317
0.175755
0.192607
0.209874
0.227559
0.245664
0.264190
0.283138
0.302510
0.322308
0.342533
0.363185
0.384267
0.405780
0.427724
0.450101
0.472912
0.496159
0.519842
0.543964
0.568526
0.593528
0.618973
0.644862
0.671197
0.697979
0.725208
0.752887
0.781016
0.809595
0.838623
0.868100
0.898023
0.928390
0.959196
-0.046628
-0.036115
-0.025237
-0.013990
-0.002369
0.009629
0.022009
0.034775
0.047930
0.061477
0.075421
0.089765
0.104510
0.119661
0.135221
0.151191
0.167574
0.184372
0.201588
0.219224
0.237281
0.255761
0.274666
0.293996
0.313755
0.333943
0.354561
0.375611
0.397093
0.419010
0.441362
0.464151
0.487378
0.511044
0.535151
0.559700
0.584693
0.610131
0.636016
0.662348
0.689130
0.716362
0.744046
0.772182
0.800770
0.829809
0.859300
0.889239
0.919623
0.950448
-0.054145
-0.043707
-0.032903
-0.021729
-0.010181
0.001746
0.014055
0.026751
0.039837
0.053318
0.067195
0.081474
0.096156
0.111245
0.126744
0.142655
0.158981
0.175724
0.192886
0.210470
0.228477
0.246910
0.265769
0.285056
0.304774
0.324923
0.345504
0.366520
0.387972
0.409860
0.432185
0.454950
0.478156
0.501804
0.525895
0.550431
0.575413
0.600843
0.626721
0.653051
0.679832
0.707066
0.734754
0.762897
0.791493
0.820544
0.850047
0.880001
0.910403
0.941247
-0.062033
-0.051672
-0.040945
-0.029847
-0.018375
-0.006522
0.005714
0.018337
0.031352
0.044762
0.058572
0.072782
0.087399
0.102423
0.117859
0.133709
0.149975
0.166661
0.183767
0.201297
0.219252
0.237635
0.256447
0.275689
0.295363
0.315472
0.336015
0.356996
0.378414
0.400271
0.422569
0.445309
0.468492
0.492119
0.516193
0.540715
0.565685
0.591105
0.616978
0.643303
0.670083
0.697318
0.725010
0.753158
0.781763
0.810824
0.840340
0.870309
0.900728
0.931591
-0.070292
-0.060012
-0.049364
-0.038345
-0.026950
-0.015175
-0.003015
0.009534
0.022475
0.035812
0.049550
0.063691
0.078239
0.093196
0.108567
0.124353
0.140558
0.157183
0.174231
0.191705
0.209606
0.227937
0.246699
0.265894
0.285524
0.305590
0.326093
0.347036
0.368419
0.390244
0.412512
0.435225
0.458384
0.481991
0.506046
0.530552
0.555509
0.580919
0.606784
0.633104
0.659882
0.687118
0.714812
0.742965
0.771578
0.800649
0.830177
0.860160
0.890595
0.921478
